<svg width="261" height="217" viewBox="0 0 261 217" fill="none" xmlns="http://www.w3.org/2000/svg">
<mask id="path-1-inside-1_6_1347" fill="white">
<path d="M83.375 94.0333L76.125 101.267L68.875 94.0333V79.5667H83.375V94.0333Z"/>
<path d="M79.75 104.883L87 97.65H101.5V112.117H87L79.75 104.883Z"/>
<path d="M83.375 115.733V130.2H68.875V115.733L76.125 108.5L83.375 115.733Z"/>
<path d="M65.25 112.117H50.75V97.65H65.25L72.5 104.883L65.25 112.117Z"/>
<path d="M176.127 97.9655C178.421 98.6667 180.23 100.472 180.933 102.76C181.139 103.431 181.25 104.144 181.25 104.882C181.25 105.622 181.139 106.336 180.932 107.008C180.229 109.294 178.421 111.097 176.129 111.799C175.456 112.005 174.741 112.116 174 112.116C169.996 112.116 166.75 108.877 166.75 104.882C166.75 100.888 169.996 97.6491 174 97.6491C174.74 97.6491 175.455 97.7598 176.127 97.9655Z"/>
<path d="M181.567 117.225C182.271 114.939 184.079 113.136 186.37 112.435C187.043 112.228 187.758 112.118 188.499 112.118C189.241 112.118 189.957 112.229 190.632 112.436C192.921 113.137 194.727 114.939 195.43 117.223C195.638 117.896 195.749 118.61 195.749 119.351C195.749 123.346 192.503 126.584 188.499 126.584C184.495 126.584 181.249 123.346 181.249 119.351C181.249 118.611 181.36 117.897 181.567 117.225Z"/>
<path d="M200.868 111.798C198.579 111.096 196.773 109.294 196.07 107.01C195.862 106.337 195.751 105.623 195.751 104.882C195.751 104.143 195.862 103.43 196.069 102.758C196.772 100.472 198.579 98.6682 200.87 97.9665C201.544 97.7602 202.259 97.6491 203.001 97.6491C207.005 97.6491 210.251 100.888 210.251 104.882C210.251 108.877 207.005 112.116 203.001 112.116C202.259 112.116 201.543 112.004 200.868 111.798Z"/>
<path d="M188.499 97.65C189.241 97.65 189.956 97.5389 190.63 97.3326C192.921 96.6309 194.728 94.8271 195.431 92.5411C195.638 91.8693 195.749 91.156 195.749 90.4167C195.749 86.4218 192.503 83.1833 188.499 83.1833C184.495 83.1833 181.249 86.4218 181.249 90.4167C181.249 91.1552 181.36 91.8679 181.566 92.5391C182.269 94.8271 184.079 96.6324 186.372 97.3336C187.045 97.5393 187.759 97.65 188.499 97.65Z"/>
<path fill-rule="evenodd" clip-rule="evenodd" d="M97.875 45.1286V32.55C97.875 14.5731 112.482 0 130.5 0C148.518 0 163.125 14.5731 163.125 32.55V45.1286C174.59 46.3887 184.41 48.2125 192.579 50.1717C218.063 56.2834 234.495 76.7826 241.723 98.4171C245.76 110.501 250.47 125.469 254.195 139.847C257.768 153.635 261 168.943 261 180.832C261 187.989 259.272 194.814 255.556 200.741C251.887 206.592 247.053 210.342 242.691 212.661C238.437 214.923 234.422 215.949 231.636 216.442C230.195 216.698 228.943 216.835 227.96 216.91C227.465 216.947 227.028 216.97 226.657 216.983C226.386 216.993 226.115 216.998 225.846 217L225.826 217L225.794 217L225.776 217L225.76 217L225.745 217C208.499 217 193.533 206.655 186.459 191.61L178.938 175.616C173.953 165.016 164.254 159.133 154.499 159.133H106.501C96.7455 159.133 87.0472 165.016 82.0624 175.616L74.5415 191.61C67.467 206.655 52.5076 217 35.2614 217L35.2058 217L35.1534 217L35.0368 216.999L34.8518 216.996C34.6986 216.994 34.5288 216.989 34.3435 216.983C33.9731 216.97 33.5352 216.947 33.0401 216.91C32.0573 216.835 30.805 216.698 29.364 216.442C26.5783 215.949 22.5633 214.923 18.3088 212.661C13.9471 210.342 9.11316 206.592 5.44451 200.741C1.72893 194.815 0 187.99 0 180.833C0 168.944 3.23238 153.635 6.80451 139.847C10.5296 125.469 15.24 110.501 19.277 98.4171C26.5048 76.7826 42.9374 56.2834 68.4209 50.1717C76.5901 48.2125 86.4099 46.3887 97.875 45.1286ZM105.125 32.55C105.125 18.568 116.486 7.23333 130.5 7.23333C144.514 7.23333 155.875 18.568 155.875 32.55V44.4291C148.092 43.7807 139.633 43.4 130.5 43.4C121.367 43.4 112.908 43.7807 105.125 44.4291V32.55ZM97.875 52.4069V62.451C95.708 63.7017 94.25 66.0393 94.25 68.7167C94.25 72.7115 97.4959 75.95 101.5 75.95C105.504 75.95 108.75 72.7115 108.75 68.7167C108.75 66.0393 107.292 63.7017 105.125 62.451V51.6883C112.874 51.0255 121.333 50.6333 130.5 50.6333C139.667 50.6333 148.126 51.0255 155.875 51.6883V62.451C153.708 63.7017 152.25 66.0393 152.25 68.7167C152.25 72.7115 155.496 75.95 159.5 75.95C163.504 75.95 166.75 72.7115 166.75 68.7167C166.75 66.0393 165.292 63.7017 163.125 62.451V52.4069C173.941 53.6291 183.195 55.3606 190.885 57.2047C213.259 62.5708 228.16 80.6955 234.845 100.704C238.856 112.71 243.509 127.504 247.176 141.657C250.74 155.413 253.75 169.942 253.75 180.833C253.75 186.817 252.312 192.275 249.409 196.905C246.539 201.483 242.753 204.432 239.282 206.277C235.884 208.084 232.646 208.917 230.368 209.321C229.197 209.528 228.187 209.638 227.41 209.697C227.018 209.727 226.679 209.744 226.4 209.754C226.2 209.761 226.001 209.765 225.801 209.767L225.769 209.767L225.739 209.767C211.498 209.767 198.987 201.223 193.022 188.538L185.501 172.544C179.399 159.567 167.242 151.9 154.499 151.9H106.501C93.7581 151.9 81.6012 159.567 75.4989 172.544L67.9779 188.538C62.0129 201.223 49.5022 209.767 35.2614 209.767L35.2308 209.767L35.1988 209.767L35.1304 209.766L34.9763 209.764C34.8661 209.762 34.7404 209.759 34.6004 209.754C34.3209 209.744 33.9815 209.727 33.5903 209.697C32.813 209.638 31.803 209.528 30.632 209.32C28.3543 208.917 25.1163 208.084 21.7183 206.277C18.2477 204.432 14.4612 201.483 11.591 196.905C8.68854 192.276 7.25 186.818 7.25 180.833C7.25 169.943 10.26 155.413 13.8238 141.657C17.4906 127.504 22.1442 112.71 26.155 100.704C32.8397 80.6955 47.7409 62.5708 70.1154 57.2047C77.805 55.3606 87.0593 53.6291 97.875 52.4069Z"/>
</mask>
<path d="M83.375 94.0333L76.125 101.267L68.875 94.0333V79.5667H83.375V94.0333Z" fill="white"/>
<path d="M79.75 104.883L87 97.65H101.5V112.117H87L79.75 104.883Z" fill="white"/>
<path d="M83.375 115.733V130.2H68.875V115.733L76.125 108.5L83.375 115.733Z" fill="white"/>
<path d="M65.25 112.117H50.75V97.65H65.25L72.5 104.883L65.25 112.117Z" fill="white"/>
<path d="M176.127 97.9655C178.421 98.6667 180.23 100.472 180.933 102.76C181.139 103.431 181.25 104.144 181.25 104.882C181.25 105.622 181.139 106.336 180.932 107.008C180.229 109.294 178.421 111.097 176.129 111.799C175.456 112.005 174.741 112.116 174 112.116C169.996 112.116 166.75 108.877 166.75 104.882C166.75 100.888 169.996 97.6491 174 97.6491C174.74 97.6491 175.455 97.7598 176.127 97.9655Z" fill="white"/>
<path d="M181.567 117.225C182.271 114.939 184.079 113.136 186.37 112.435C187.043 112.228 187.758 112.118 188.499 112.118C189.241 112.118 189.957 112.229 190.632 112.436C192.921 113.137 194.727 114.939 195.43 117.223C195.638 117.896 195.749 118.61 195.749 119.351C195.749 123.346 192.503 126.584 188.499 126.584C184.495 126.584 181.249 123.346 181.249 119.351C181.249 118.611 181.36 117.897 181.567 117.225Z" fill="white"/>
<path d="M200.868 111.798C198.579 111.096 196.773 109.294 196.07 107.01C195.862 106.337 195.751 105.623 195.751 104.882C195.751 104.143 195.862 103.43 196.069 102.758C196.772 100.472 198.579 98.6682 200.87 97.9665C201.544 97.7602 202.259 97.6491 203.001 97.6491C207.005 97.6491 210.251 100.888 210.251 104.882C210.251 108.877 207.005 112.116 203.001 112.116C202.259 112.116 201.543 112.004 200.868 111.798Z" fill="white"/>
<path d="M188.499 97.65C189.241 97.65 189.956 97.5389 190.63 97.3326C192.921 96.6309 194.728 94.8271 195.431 92.5411C195.638 91.8693 195.749 91.156 195.749 90.4167C195.749 86.4218 192.503 83.1833 188.499 83.1833C184.495 83.1833 181.249 86.4218 181.249 90.4167C181.249 91.1552 181.36 91.8679 181.566 92.5391C182.269 94.8271 184.079 96.6324 186.372 97.3336C187.045 97.5393 187.759 97.65 188.499 97.65Z" fill="white"/>
<path fill-rule="evenodd" clip-rule="evenodd" d="M97.875 45.1286V32.55C97.875 14.5731 112.482 0 130.5 0C148.518 0 163.125 14.5731 163.125 32.55V45.1286C174.59 46.3887 184.41 48.2125 192.579 50.1717C218.063 56.2834 234.495 76.7826 241.723 98.4171C245.76 110.501 250.47 125.469 254.195 139.847C257.768 153.635 261 168.943 261 180.832C261 187.989 259.272 194.814 255.556 200.741C251.887 206.592 247.053 210.342 242.691 212.661C238.437 214.923 234.422 215.949 231.636 216.442C230.195 216.698 228.943 216.835 227.96 216.91C227.465 216.947 227.028 216.97 226.657 216.983C226.386 216.993 226.115 216.998 225.846 217L225.826 217L225.794 217L225.776 217L225.76 217L225.745 217C208.499 217 193.533 206.655 186.459 191.61L178.938 175.616C173.953 165.016 164.254 159.133 154.499 159.133H106.501C96.7455 159.133 87.0472 165.016 82.0624 175.616L74.5415 191.61C67.467 206.655 52.5076 217 35.2614 217L35.2058 217L35.1534 217L35.0368 216.999L34.8518 216.996C34.6986 216.994 34.5288 216.989 34.3435 216.983C33.9731 216.97 33.5352 216.947 33.0401 216.91C32.0573 216.835 30.805 216.698 29.364 216.442C26.5783 215.949 22.5633 214.923 18.3088 212.661C13.9471 210.342 9.11316 206.592 5.44451 200.741C1.72893 194.815 0 187.99 0 180.833C0 168.944 3.23238 153.635 6.80451 139.847C10.5296 125.469 15.24 110.501 19.277 98.4171C26.5048 76.7826 42.9374 56.2834 68.4209 50.1717C76.5901 48.2125 86.4099 46.3887 97.875 45.1286ZM105.125 32.55C105.125 18.568 116.486 7.23333 130.5 7.23333C144.514 7.23333 155.875 18.568 155.875 32.55V44.4291C148.092 43.7807 139.633 43.4 130.5 43.4C121.367 43.4 112.908 43.7807 105.125 44.4291V32.55ZM97.875 52.4069V62.451C95.708 63.7017 94.25 66.0393 94.25 68.7167C94.25 72.7115 97.4959 75.95 101.5 75.95C105.504 75.95 108.75 72.7115 108.75 68.7167C108.75 66.0393 107.292 63.7017 105.125 62.451V51.6883C112.874 51.0255 121.333 50.6333 130.5 50.6333C139.667 50.6333 148.126 51.0255 155.875 51.6883V62.451C153.708 63.7017 152.25 66.0393 152.25 68.7167C152.25 72.7115 155.496 75.95 159.5 75.95C163.504 75.95 166.75 72.7115 166.75 68.7167C166.75 66.0393 165.292 63.7017 163.125 62.451V52.4069C173.941 53.6291 183.195 55.3606 190.885 57.2047C213.259 62.5708 228.16 80.6955 234.845 100.704C238.856 112.71 243.509 127.504 247.176 141.657C250.74 155.413 253.75 169.942 253.75 180.833C253.75 186.817 252.312 192.275 249.409 196.905C246.539 201.483 242.753 204.432 239.282 206.277C235.884 208.084 232.646 208.917 230.368 209.321C229.197 209.528 228.187 209.638 227.41 209.697C227.018 209.727 226.679 209.744 226.4 209.754C226.2 209.761 226.001 209.765 225.801 209.767L225.769 209.767L225.739 209.767C211.498 209.767 198.987 201.223 193.022 188.538L185.501 172.544C179.399 159.567 167.242 151.9 154.499 151.9H106.501C93.7581 151.9 81.6012 159.567 75.4989 172.544L67.9779 188.538C62.0129 201.223 49.5022 209.767 35.2614 209.767L35.2308 209.767L35.1988 209.767L35.1304 209.766L34.9763 209.764C34.8661 209.762 34.7404 209.759 34.6004 209.754C34.3209 209.744 33.9815 209.727 33.5903 209.697C32.813 209.638 31.803 209.528 30.632 209.32C28.3543 208.917 25.1163 208.084 21.7183 206.277C18.2477 204.432 14.4612 201.483 11.591 196.905C8.68854 192.276 7.25 186.818 7.25 180.833C7.25 169.943 10.26 155.413 13.8238 141.657C17.4906 127.504 22.1442 112.71 26.155 100.704C32.8397 80.6955 47.7409 62.5708 70.1154 57.2047C77.805 55.3606 87.0593 53.6291 97.875 52.4069Z" fill="white"/>
<path d="M83.375 94.0333L76.125 101.267L68.875 94.0333V79.5667H83.375V94.0333Z" stroke="white" stroke-width="2" mask="url(#path-1-inside-1_6_1347)"/>
<path d="M79.75 104.883L87 97.65H101.5V112.117H87L79.75 104.883Z" stroke="white" stroke-width="2" mask="url(#path-1-inside-1_6_1347)"/>
<path d="M83.375 115.733V130.2H68.875V115.733L76.125 108.5L83.375 115.733Z" stroke="white" stroke-width="2" mask="url(#path-1-inside-1_6_1347)"/>
<path d="M65.25 112.117H50.75V97.65H65.25L72.5 104.883L65.25 112.117Z" stroke="white" stroke-width="2" mask="url(#path-1-inside-1_6_1347)"/>
<path d="M176.127 97.9655C178.421 98.6667 180.23 100.472 180.933 102.76C181.139 103.431 181.25 104.144 181.25 104.882C181.25 105.622 181.139 106.336 180.932 107.008C180.229 109.294 178.421 111.097 176.129 111.799C175.456 112.005 174.741 112.116 174 112.116C169.996 112.116 166.75 108.877 166.75 104.882C166.75 100.888 169.996 97.6491 174 97.6491C174.74 97.6491 175.455 97.7598 176.127 97.9655Z" stroke="white" stroke-width="2" mask="url(#path-1-inside-1_6_1347)"/>
<path d="M181.567 117.225C182.271 114.939 184.079 113.136 186.37 112.435C187.043 112.228 187.758 112.118 188.499 112.118C189.241 112.118 189.957 112.229 190.632 112.436C192.921 113.137 194.727 114.939 195.43 117.223C195.638 117.896 195.749 118.61 195.749 119.351C195.749 123.346 192.503 126.584 188.499 126.584C184.495 126.584 181.249 123.346 181.249 119.351C181.249 118.611 181.36 117.897 181.567 117.225Z" stroke="white" stroke-width="2" mask="url(#path-1-inside-1_6_1347)"/>
<path d="M200.868 111.798C198.579 111.096 196.773 109.294 196.07 107.01C195.862 106.337 195.751 105.623 195.751 104.882C195.751 104.143 195.862 103.43 196.069 102.758C196.772 100.472 198.579 98.6682 200.87 97.9665C201.544 97.7602 202.259 97.6491 203.001 97.6491C207.005 97.6491 210.251 100.888 210.251 104.882C210.251 108.877 207.005 112.116 203.001 112.116C202.259 112.116 201.543 112.004 200.868 111.798Z" stroke="white" stroke-width="2" mask="url(#path-1-inside-1_6_1347)"/>
<path d="M188.499 97.65C189.241 97.65 189.956 97.5389 190.63 97.3326C192.921 96.6309 194.728 94.8271 195.431 92.5411C195.638 91.8693 195.749 91.156 195.749 90.4167C195.749 86.4218 192.503 83.1833 188.499 83.1833C184.495 83.1833 181.249 86.4218 181.249 90.4167C181.249 91.1552 181.36 91.8679 181.566 92.5391C182.269 94.8271 184.079 96.6324 186.372 97.3336C187.045 97.5393 187.759 97.65 188.499 97.65Z" stroke="white" stroke-width="2" mask="url(#path-1-inside-1_6_1347)"/>
<path fill-rule="evenodd" clip-rule="evenodd" d="M97.875 45.1286V32.55C97.875 14.5731 112.482 0 130.5 0C148.518 0 163.125 14.5731 163.125 32.55V45.1286C174.59 46.3887 184.41 48.2125 192.579 50.1717C218.063 56.2834 234.495 76.7826 241.723 98.4171C245.76 110.501 250.47 125.469 254.195 139.847C257.768 153.635 261 168.943 261 180.832C261 187.989 259.272 194.814 255.556 200.741C251.887 206.592 247.053 210.342 242.691 212.661C238.437 214.923 234.422 215.949 231.636 216.442C230.195 216.698 228.943 216.835 227.96 216.91C227.465 216.947 227.028 216.97 226.657 216.983C226.386 216.993 226.115 216.998 225.846 217L225.826 217L225.794 217L225.776 217L225.76 217L225.745 217C208.499 217 193.533 206.655 186.459 191.61L178.938 175.616C173.953 165.016 164.254 159.133 154.499 159.133H106.501C96.7455 159.133 87.0472 165.016 82.0624 175.616L74.5415 191.61C67.467 206.655 52.5076 217 35.2614 217L35.2058 217L35.1534 217L35.0368 216.999L34.8518 216.996C34.6986 216.994 34.5288 216.989 34.3435 216.983C33.9731 216.97 33.5352 216.947 33.0401 216.91C32.0573 216.835 30.805 216.698 29.364 216.442C26.5783 215.949 22.5633 214.923 18.3088 212.661C13.9471 210.342 9.11316 206.592 5.44451 200.741C1.72893 194.815 0 187.99 0 180.833C0 168.944 3.23238 153.635 6.80451 139.847C10.5296 125.469 15.24 110.501 19.277 98.4171C26.5048 76.7826 42.9374 56.2834 68.4209 50.1717C76.5901 48.2125 86.4099 46.3887 97.875 45.1286ZM105.125 32.55C105.125 18.568 116.486 7.23333 130.5 7.23333C144.514 7.23333 155.875 18.568 155.875 32.55V44.4291C148.092 43.7807 139.633 43.4 130.5 43.4C121.367 43.4 112.908 43.7807 105.125 44.4291V32.55ZM97.875 52.4069V62.451C95.708 63.7017 94.25 66.0393 94.25 68.7167C94.25 72.7115 97.4959 75.95 101.5 75.95C105.504 75.95 108.75 72.7115 108.75 68.7167C108.75 66.0393 107.292 63.7017 105.125 62.451V51.6883C112.874 51.0255 121.333 50.6333 130.5 50.6333C139.667 50.6333 148.126 51.0255 155.875 51.6883V62.451C153.708 63.7017 152.25 66.0393 152.25 68.7167C152.25 72.7115 155.496 75.95 159.5 75.95C163.504 75.95 166.75 72.7115 166.75 68.7167C166.75 66.0393 165.292 63.7017 163.125 62.451V52.4069C173.941 53.6291 183.195 55.3606 190.885 57.2047C213.259 62.5708 228.16 80.6955 234.845 100.704C238.856 112.71 243.509 127.504 247.176 141.657C250.74 155.413 253.75 169.942 253.75 180.833C253.75 186.817 252.312 192.275 249.409 196.905C246.539 201.483 242.753 204.432 239.282 206.277C235.884 208.084 232.646 208.917 230.368 209.321C229.197 209.528 228.187 209.638 227.41 209.697C227.018 209.727 226.679 209.744 226.4 209.754C226.2 209.761 226.001 209.765 225.801 209.767L225.769 209.767L225.739 209.767C211.498 209.767 198.987 201.223 193.022 188.538L185.501 172.544C179.399 159.567 167.242 151.9 154.499 151.9H106.501C93.7581 151.9 81.6012 159.567 75.4989 172.544L67.9779 188.538C62.0129 201.223 49.5022 209.767 35.2614 209.767L35.2308 209.767L35.1988 209.767L35.1304 209.766L34.9763 209.764C34.8661 209.762 34.7404 209.759 34.6004 209.754C34.3209 209.744 33.9815 209.727 33.5903 209.697C32.813 209.638 31.803 209.528 30.632 209.32C28.3543 208.917 25.1163 208.084 21.7183 206.277C18.2477 204.432 14.4612 201.483 11.591 196.905C8.68854 192.276 7.25 186.818 7.25 180.833C7.25 169.943 10.26 155.413 13.8238 141.657C17.4906 127.504 22.1442 112.71 26.155 100.704C32.8397 80.6955 47.7409 62.5708 70.1154 57.2047C77.805 55.3606 87.0593 53.6291 97.875 52.4069Z" stroke="white" stroke-width="2" mask="url(#path-1-inside-1_6_1347)"/>
</svg>
