<svg width="163" height="86" viewBox="0 0 163 86" fill="none" xmlns="http://www.w3.org/2000/svg">
<mask id="path-1-inside-1_174_2195" fill="white">
<path d="M70.62 21.6527L68.9461 23.3183L67.2723 21.6527V18.3215H70.62V21.6527Z"/>
<path d="M69.7831 24.1511L71.4569 22.4855H74.8046V25.8167H71.4569L69.7831 24.1511Z"/>
<path d="M70.62 26.6495V29.9807H67.2723V26.6495L68.9461 24.9839L70.62 26.6495Z"/>
<path d="M66.4353 25.8167H63.0876V22.4855H66.4353L68.1092 24.1511L66.4353 25.8167Z"/>
<path d="M92.0344 22.5581C92.5638 22.7196 92.9816 23.1353 93.1439 23.6622C93.1915 23.8167 93.2171 23.9808 93.2171 24.1509C93.2171 24.3212 93.1914 24.4856 93.1436 24.6404C92.9812 25.1667 92.5638 25.582 92.0348 25.7435C91.8794 25.7909 91.7143 25.8165 91.5432 25.8165C90.6188 25.8165 89.8694 25.0708 89.8694 24.1509C89.8694 23.231 90.6188 22.4853 91.5432 22.4853C91.7141 22.4853 91.879 22.5108 92.0344 22.5581Z"/>
<path d="M93.2903 26.993C93.4527 26.4667 93.8701 26.0514 94.3991 25.8899C94.5546 25.8424 94.7197 25.8169 94.8907 25.8169C95.0621 25.8169 95.2274 25.8425 95.3831 25.8901C95.9116 26.0517 96.3286 26.4667 96.491 26.9925C96.5388 27.1474 96.5646 27.312 96.5646 27.4825C96.5646 28.4024 95.8152 29.1481 94.8907 29.1481C93.9663 29.1481 93.2169 28.4024 93.2169 27.4825C93.2169 27.3121 93.2426 27.1478 93.2903 26.993Z"/>
<path d="M97.7465 25.7432C97.218 25.5816 96.801 25.1667 96.6386 24.6408C96.5908 24.4859 96.565 24.3214 96.565 24.1509C96.565 23.9806 96.5907 23.8164 96.6384 23.6617C96.8007 23.1353 97.218 22.72 97.747 22.5584C97.9025 22.5109 98.0677 22.4853 98.2389 22.4853C99.1633 22.4853 99.9127 23.231 99.9127 24.1509C99.9127 25.0708 99.1633 25.8165 98.2389 25.8165C98.0675 25.8165 97.9022 25.7908 97.7465 25.7432Z"/>
<path d="M94.8907 22.4855C95.0619 22.4855 95.2271 22.4599 95.3826 22.4124C95.9116 22.2508 96.3289 21.8355 96.4912 21.3091C96.5389 21.1544 96.5646 20.9901 96.5646 20.8199C96.5646 19.9 95.8152 19.1543 94.8907 19.1543C93.9663 19.1543 93.2169 19.9 93.2169 20.8199C93.2169 20.99 93.2425 21.1541 93.2901 21.3086C93.4524 21.8355 93.8701 22.2512 94.3996 22.4126C94.5549 22.46 94.7198 22.4855 94.8907 22.4855Z"/>
<path fill-rule="evenodd" clip-rule="evenodd" d="M73.9677 10.3916V7.49516C73.9677 3.3557 77.3401 0 81.5001 0C85.6601 0 89.0324 3.3557 89.0324 7.49516V10.3916C91.6795 10.6818 93.9466 11.1017 95.8327 11.5529C101.716 12.9602 105.51 17.6804 107.179 22.6621C108.111 25.4446 109.198 28.8912 110.059 32.202C110.883 35.3769 111.629 38.9018 111.63 41.6396C111.63 43.2875 111.23 44.8592 110.373 46.2238C109.526 47.5712 108.41 48.4346 107.402 48.9686C106.42 49.4894 105.493 49.7257 104.85 49.8394C104.517 49.8982 104.228 49.9298 104.001 49.947C103.887 49.9556 103.786 49.9608 103.7 49.9638C103.638 49.966 103.575 49.9673 103.513 49.9677L103.509 49.9677L103.501 49.9677L103.497 49.9678L103.493 49.9678L103.49 49.9678C99.5082 49.9678 96.0529 47.5856 94.4196 44.1214L92.6832 40.4385C91.5323 37.9975 89.2932 36.643 87.0409 36.643H75.9592C73.7069 36.643 71.4678 37.9975 70.3169 40.4385L68.5805 44.1214C66.9472 47.5856 63.4934 49.9678 59.5116 49.9678L59.4988 49.9678L59.4867 49.9677L59.4598 49.9675L59.4171 49.9669C59.3817 49.9663 59.3425 49.9653 59.2997 49.9638C59.2142 49.9608 59.1131 49.9556 58.9988 49.947C58.7719 49.9298 58.4828 49.8982 58.1501 49.8394C57.5069 49.7257 56.5799 49.4894 55.5977 48.9686C54.5907 48.4346 53.4746 47.5712 52.6276 46.2239C51.7698 44.8593 51.3706 43.2878 51.3706 41.6398C51.3706 38.902 52.1169 35.377 52.9416 32.202C53.8016 28.8912 54.8892 25.4446 55.8212 22.6621C57.49 17.6804 61.2839 12.9602 67.1674 11.5529C69.0535 11.1017 71.3207 10.6818 73.9677 10.3916ZM75.6416 7.49516C75.6416 4.27558 78.2645 1.66559 81.5001 1.66559C84.7356 1.66559 87.3586 4.27558 87.3586 7.49516V10.2305C85.5617 10.0812 83.6087 9.99355 81.5001 9.99355C79.3914 9.99355 77.4384 10.0812 75.6416 10.2305V7.49516ZM73.9677 12.0675V14.3804C73.4674 14.6683 73.1308 15.2066 73.1308 15.8231C73.1308 16.743 73.8802 17.4887 74.8046 17.4887C75.7291 17.4887 76.4785 16.743 76.4785 15.8231C76.4785 15.2066 76.1419 14.6683 75.6416 14.3804V11.9021C77.4306 11.7494 79.3835 11.6591 81.5001 11.6591C83.6166 11.6591 85.5695 11.7494 87.3586 11.9021V14.3804C86.8583 14.6683 86.5216 15.2066 86.5216 15.8231C86.5216 16.743 87.2711 17.4887 88.1955 17.4887C89.1199 17.4887 89.8694 16.743 89.8694 15.8231C89.8694 15.2066 89.5327 14.6683 89.0324 14.3804V12.0675C91.5295 12.349 93.6661 12.7477 95.4415 13.1723C100.607 14.4079 104.048 18.5814 105.591 23.1888C106.517 25.9532 107.591 29.3598 108.438 32.6189C109.261 35.7863 109.956 39.132 109.956 41.6396C109.956 43.0176 109.624 44.2745 108.954 45.3405C108.291 46.3947 107.417 47.0738 106.615 47.4987C105.831 47.9146 105.083 48.1065 104.557 48.1994C104.287 48.2472 104.054 48.2726 103.874 48.2862C103.784 48.293 103.706 48.297 103.641 48.2993C103.595 48.3009 103.549 48.3019 103.503 48.3021L103.496 48.3022L103.488 48.3022C100.201 48.3022 97.3122 46.3349 95.935 43.4139L94.1986 39.7311C92.7897 36.7428 89.9829 34.9774 87.0409 34.9774H75.9592C73.0172 34.9774 70.2105 36.7428 68.8016 39.7311L67.0651 43.4139C65.688 46.3349 62.7995 48.3022 59.5116 48.3022L59.5046 48.3022L59.4972 48.3021L59.4814 48.302L59.4458 48.3016C59.4204 48.3011 59.3914 48.3004 59.3591 48.2993C59.2945 48.297 59.2162 48.293 59.1258 48.2862C58.9464 48.2726 58.7132 48.2472 58.4428 48.1994C57.917 48.1065 57.1694 47.9146 56.3849 47.4986C55.5836 47.0738 54.7094 46.3946 54.0467 45.3405C53.3766 44.2746 53.0445 43.0178 53.0445 41.6398C53.0445 39.1322 53.7394 35.7864 54.5622 32.6189C55.4088 29.3598 56.4832 25.9532 57.4092 23.1888C58.9525 18.5814 62.3929 14.4079 67.5587 13.1723C69.334 12.7477 71.4706 12.349 73.9677 12.0675Z"/>
</mask>
<path d="M70.62 21.6527L68.9461 23.3183L67.2723 21.6527V18.3215H70.62V21.6527Z" fill="white"/>
<path d="M69.7831 24.1511L71.4569 22.4855H74.8046V25.8167H71.4569L69.7831 24.1511Z" fill="white"/>
<path d="M70.62 26.6495V29.9807H67.2723V26.6495L68.9461 24.9839L70.62 26.6495Z" fill="white"/>
<path d="M66.4353 25.8167H63.0876V22.4855H66.4353L68.1092 24.1511L66.4353 25.8167Z" fill="white"/>
<path d="M92.0344 22.5581C92.5638 22.7196 92.9816 23.1353 93.1439 23.6622C93.1915 23.8167 93.2171 23.9808 93.2171 24.1509C93.2171 24.3212 93.1914 24.4856 93.1436 24.6404C92.9812 25.1667 92.5638 25.582 92.0348 25.7435C91.8794 25.7909 91.7143 25.8165 91.5432 25.8165C90.6188 25.8165 89.8694 25.0708 89.8694 24.1509C89.8694 23.231 90.6188 22.4853 91.5432 22.4853C91.7141 22.4853 91.879 22.5108 92.0344 22.5581Z" fill="white"/>
<path d="M93.2903 26.993C93.4527 26.4667 93.8701 26.0514 94.3991 25.8899C94.5546 25.8424 94.7197 25.8169 94.8907 25.8169C95.0621 25.8169 95.2274 25.8425 95.3831 25.8901C95.9116 26.0517 96.3286 26.4667 96.491 26.9925C96.5388 27.1474 96.5646 27.312 96.5646 27.4825C96.5646 28.4024 95.8152 29.1481 94.8907 29.1481C93.9663 29.1481 93.2169 28.4024 93.2169 27.4825C93.2169 27.3121 93.2426 27.1478 93.2903 26.993Z" fill="white"/>
<path d="M97.7465 25.7432C97.218 25.5816 96.801 25.1667 96.6386 24.6408C96.5908 24.4859 96.565 24.3214 96.565 24.1509C96.565 23.9806 96.5907 23.8164 96.6384 23.6617C96.8007 23.1353 97.218 22.72 97.747 22.5584C97.9025 22.5109 98.0677 22.4853 98.2389 22.4853C99.1633 22.4853 99.9127 23.231 99.9127 24.1509C99.9127 25.0708 99.1633 25.8165 98.2389 25.8165C98.0675 25.8165 97.9022 25.7908 97.7465 25.7432Z" fill="white"/>
<path d="M94.8907 22.4855C95.0619 22.4855 95.2271 22.4599 95.3826 22.4124C95.9116 22.2508 96.3289 21.8355 96.4912 21.3091C96.5389 21.1544 96.5646 20.9901 96.5646 20.8199C96.5646 19.9 95.8152 19.1543 94.8907 19.1543C93.9663 19.1543 93.2169 19.9 93.2169 20.8199C93.2169 20.99 93.2425 21.1541 93.2901 21.3086C93.4524 21.8355 93.8701 22.2512 94.3996 22.4126C94.5549 22.46 94.7198 22.4855 94.8907 22.4855Z" fill="white"/>
<path fill-rule="evenodd" clip-rule="evenodd" d="M73.9677 10.3916V7.49516C73.9677 3.3557 77.3401 0 81.5001 0C85.6601 0 89.0324 3.3557 89.0324 7.49516V10.3916C91.6795 10.6818 93.9466 11.1017 95.8327 11.5529C101.716 12.9602 105.51 17.6804 107.179 22.6621C108.111 25.4446 109.198 28.8912 110.059 32.202C110.883 35.3769 111.629 38.9018 111.63 41.6396C111.63 43.2875 111.23 44.8592 110.373 46.2238C109.526 47.5712 108.41 48.4346 107.402 48.9686C106.42 49.4894 105.493 49.7257 104.85 49.8394C104.517 49.8982 104.228 49.9298 104.001 49.947C103.887 49.9556 103.786 49.9608 103.7 49.9638C103.638 49.966 103.575 49.9673 103.513 49.9677L103.509 49.9677L103.501 49.9677L103.497 49.9678L103.493 49.9678L103.49 49.9678C99.5082 49.9678 96.0529 47.5856 94.4196 44.1214L92.6832 40.4385C91.5323 37.9975 89.2932 36.643 87.0409 36.643H75.9592C73.7069 36.643 71.4678 37.9975 70.3169 40.4385L68.5805 44.1214C66.9472 47.5856 63.4934 49.9678 59.5116 49.9678L59.4988 49.9678L59.4867 49.9677L59.4598 49.9675L59.4171 49.9669C59.3817 49.9663 59.3425 49.9653 59.2997 49.9638C59.2142 49.9608 59.1131 49.9556 58.9988 49.947C58.7719 49.9298 58.4828 49.8982 58.1501 49.8394C57.5069 49.7257 56.5799 49.4894 55.5977 48.9686C54.5907 48.4346 53.4746 47.5712 52.6276 46.2239C51.7698 44.8593 51.3706 43.2878 51.3706 41.6398C51.3706 38.902 52.1169 35.377 52.9416 32.202C53.8016 28.8912 54.8892 25.4446 55.8212 22.6621C57.49 17.6804 61.2839 12.9602 67.1674 11.5529C69.0535 11.1017 71.3207 10.6818 73.9677 10.3916ZM75.6416 7.49516C75.6416 4.27558 78.2645 1.66559 81.5001 1.66559C84.7356 1.66559 87.3586 4.27558 87.3586 7.49516V10.2305C85.5617 10.0812 83.6087 9.99355 81.5001 9.99355C79.3914 9.99355 77.4384 10.0812 75.6416 10.2305V7.49516ZM73.9677 12.0675V14.3804C73.4674 14.6683 73.1308 15.2066 73.1308 15.8231C73.1308 16.743 73.8802 17.4887 74.8046 17.4887C75.7291 17.4887 76.4785 16.743 76.4785 15.8231C76.4785 15.2066 76.1419 14.6683 75.6416 14.3804V11.9021C77.4306 11.7494 79.3835 11.6591 81.5001 11.6591C83.6166 11.6591 85.5695 11.7494 87.3586 11.9021V14.3804C86.8583 14.6683 86.5216 15.2066 86.5216 15.8231C86.5216 16.743 87.2711 17.4887 88.1955 17.4887C89.1199 17.4887 89.8694 16.743 89.8694 15.8231C89.8694 15.2066 89.5327 14.6683 89.0324 14.3804V12.0675C91.5295 12.349 93.6661 12.7477 95.4415 13.1723C100.607 14.4079 104.048 18.5814 105.591 23.1888C106.517 25.9532 107.591 29.3598 108.438 32.6189C109.261 35.7863 109.956 39.132 109.956 41.6396C109.956 43.0176 109.624 44.2745 108.954 45.3405C108.291 46.3947 107.417 47.0738 106.615 47.4987C105.831 47.9146 105.083 48.1065 104.557 48.1994C104.287 48.2472 104.054 48.2726 103.874 48.2862C103.784 48.293 103.706 48.297 103.641 48.2993C103.595 48.3009 103.549 48.3019 103.503 48.3021L103.496 48.3022L103.488 48.3022C100.201 48.3022 97.3122 46.3349 95.935 43.4139L94.1986 39.7311C92.7897 36.7428 89.9829 34.9774 87.0409 34.9774H75.9592C73.0172 34.9774 70.2105 36.7428 68.8016 39.7311L67.0651 43.4139C65.688 46.3349 62.7995 48.3022 59.5116 48.3022L59.5046 48.3022L59.4972 48.3021L59.4814 48.302L59.4458 48.3016C59.4204 48.3011 59.3914 48.3004 59.3591 48.2993C59.2945 48.297 59.2162 48.293 59.1258 48.2862C58.9464 48.2726 58.7132 48.2472 58.4428 48.1994C57.917 48.1065 57.1694 47.9146 56.3849 47.4986C55.5836 47.0738 54.7094 46.3946 54.0467 45.3405C53.3766 44.2746 53.0445 43.0178 53.0445 41.6398C53.0445 39.1322 53.7394 35.7864 54.5622 32.6189C55.4088 29.3598 56.4832 25.9532 57.4092 23.1888C58.9525 18.5814 62.3929 14.4079 67.5587 13.1723C69.334 12.7477 71.4706 12.349 73.9677 12.0675Z" fill="white"/>
<path d="M70.62 21.6527L68.9461 23.3183L67.2723 21.6527V18.3215H70.62V21.6527Z" stroke="white" stroke-width="1.61186" mask="url(#path-1-inside-1_174_2195)"/>
<path d="M69.7831 24.1511L71.4569 22.4855H74.8046V25.8167H71.4569L69.7831 24.1511Z" stroke="white" stroke-width="1.61186" mask="url(#path-1-inside-1_174_2195)"/>
<path d="M70.62 26.6495V29.9807H67.2723V26.6495L68.9461 24.9839L70.62 26.6495Z" stroke="white" stroke-width="1.61186" mask="url(#path-1-inside-1_174_2195)"/>
<path d="M66.4353 25.8167H63.0876V22.4855H66.4353L68.1092 24.1511L66.4353 25.8167Z" stroke="white" stroke-width="1.61186" mask="url(#path-1-inside-1_174_2195)"/>
<path d="M92.0344 22.5581C92.5638 22.7196 92.9816 23.1353 93.1439 23.6622C93.1915 23.8167 93.2171 23.9808 93.2171 24.1509C93.2171 24.3212 93.1914 24.4856 93.1436 24.6404C92.9812 25.1667 92.5638 25.582 92.0348 25.7435C91.8794 25.7909 91.7143 25.8165 91.5432 25.8165C90.6188 25.8165 89.8694 25.0708 89.8694 24.1509C89.8694 23.231 90.6188 22.4853 91.5432 22.4853C91.7141 22.4853 91.879 22.5108 92.0344 22.5581Z" stroke="white" stroke-width="1.61186" mask="url(#path-1-inside-1_174_2195)"/>
<path d="M93.2903 26.993C93.4527 26.4667 93.8701 26.0514 94.3991 25.8899C94.5546 25.8424 94.7197 25.8169 94.8907 25.8169C95.0621 25.8169 95.2274 25.8425 95.3831 25.8901C95.9116 26.0517 96.3286 26.4667 96.491 26.9925C96.5388 27.1474 96.5646 27.312 96.5646 27.4825C96.5646 28.4024 95.8152 29.1481 94.8907 29.1481C93.9663 29.1481 93.2169 28.4024 93.2169 27.4825C93.2169 27.3121 93.2426 27.1478 93.2903 26.993Z" stroke="white" stroke-width="1.61186" mask="url(#path-1-inside-1_174_2195)"/>
<path d="M97.7465 25.7432C97.218 25.5816 96.801 25.1667 96.6386 24.6408C96.5908 24.4859 96.565 24.3214 96.565 24.1509C96.565 23.9806 96.5907 23.8164 96.6384 23.6617C96.8007 23.1353 97.218 22.72 97.747 22.5584C97.9025 22.5109 98.0677 22.4853 98.2389 22.4853C99.1633 22.4853 99.9127 23.231 99.9127 24.1509C99.9127 25.0708 99.1633 25.8165 98.2389 25.8165C98.0675 25.8165 97.9022 25.7908 97.7465 25.7432Z" stroke="white" stroke-width="1.61186" mask="url(#path-1-inside-1_174_2195)"/>
<path d="M94.8907 22.4855C95.0619 22.4855 95.2271 22.4599 95.3826 22.4124C95.9116 22.2508 96.3289 21.8355 96.4912 21.3091C96.5389 21.1544 96.5646 20.9901 96.5646 20.8199C96.5646 19.9 95.8152 19.1543 94.8907 19.1543C93.9663 19.1543 93.2169 19.9 93.2169 20.8199C93.2169 20.99 93.2425 21.1541 93.2901 21.3086C93.4524 21.8355 93.8701 22.2512 94.3996 22.4126C94.5549 22.46 94.7198 22.4855 94.8907 22.4855Z" stroke="white" stroke-width="1.61186" mask="url(#path-1-inside-1_174_2195)"/>
<path fill-rule="evenodd" clip-rule="evenodd" d="M73.9677 10.3916V7.49516C73.9677 3.3557 77.3401 0 81.5001 0C85.6601 0 89.0324 3.3557 89.0324 7.49516V10.3916C91.6795 10.6818 93.9466 11.1017 95.8327 11.5529C101.716 12.9602 105.51 17.6804 107.179 22.6621C108.111 25.4446 109.198 28.8912 110.059 32.202C110.883 35.3769 111.629 38.9018 111.63 41.6396C111.63 43.2875 111.23 44.8592 110.373 46.2238C109.526 47.5712 108.41 48.4346 107.402 48.9686C106.42 49.4894 105.493 49.7257 104.85 49.8394C104.517 49.8982 104.228 49.9298 104.001 49.947C103.887 49.9556 103.786 49.9608 103.7 49.9638C103.638 49.966 103.575 49.9673 103.513 49.9677L103.509 49.9677L103.501 49.9677L103.497 49.9678L103.493 49.9678L103.49 49.9678C99.5082 49.9678 96.0529 47.5856 94.4196 44.1214L92.6832 40.4385C91.5323 37.9975 89.2932 36.643 87.0409 36.643H75.9592C73.7069 36.643 71.4678 37.9975 70.3169 40.4385L68.5805 44.1214C66.9472 47.5856 63.4934 49.9678 59.5116 49.9678L59.4988 49.9678L59.4867 49.9677L59.4598 49.9675L59.4171 49.9669C59.3817 49.9663 59.3425 49.9653 59.2997 49.9638C59.2142 49.9608 59.1131 49.9556 58.9988 49.947C58.7719 49.9298 58.4828 49.8982 58.1501 49.8394C57.5069 49.7257 56.5799 49.4894 55.5977 48.9686C54.5907 48.4346 53.4746 47.5712 52.6276 46.2239C51.7698 44.8593 51.3706 43.2878 51.3706 41.6398C51.3706 38.902 52.1169 35.377 52.9416 32.202C53.8016 28.8912 54.8892 25.4446 55.8212 22.6621C57.49 17.6804 61.2839 12.9602 67.1674 11.5529C69.0535 11.1017 71.3207 10.6818 73.9677 10.3916ZM75.6416 7.49516C75.6416 4.27558 78.2645 1.66559 81.5001 1.66559C84.7356 1.66559 87.3586 4.27558 87.3586 7.49516V10.2305C85.5617 10.0812 83.6087 9.99355 81.5001 9.99355C79.3914 9.99355 77.4384 10.0812 75.6416 10.2305V7.49516ZM73.9677 12.0675V14.3804C73.4674 14.6683 73.1308 15.2066 73.1308 15.8231C73.1308 16.743 73.8802 17.4887 74.8046 17.4887C75.7291 17.4887 76.4785 16.743 76.4785 15.8231C76.4785 15.2066 76.1419 14.6683 75.6416 14.3804V11.9021C77.4306 11.7494 79.3835 11.6591 81.5001 11.6591C83.6166 11.6591 85.5695 11.7494 87.3586 11.9021V14.3804C86.8583 14.6683 86.5216 15.2066 86.5216 15.8231C86.5216 16.743 87.2711 17.4887 88.1955 17.4887C89.1199 17.4887 89.8694 16.743 89.8694 15.8231C89.8694 15.2066 89.5327 14.6683 89.0324 14.3804V12.0675C91.5295 12.349 93.6661 12.7477 95.4415 13.1723C100.607 14.4079 104.048 18.5814 105.591 23.1888C106.517 25.9532 107.591 29.3598 108.438 32.6189C109.261 35.7863 109.956 39.132 109.956 41.6396C109.956 43.0176 109.624 44.2745 108.954 45.3405C108.291 46.3947 107.417 47.0738 106.615 47.4987C105.831 47.9146 105.083 48.1065 104.557 48.1994C104.287 48.2472 104.054 48.2726 103.874 48.2862C103.784 48.293 103.706 48.297 103.641 48.2993C103.595 48.3009 103.549 48.3019 103.503 48.3021L103.496 48.3022L103.488 48.3022C100.201 48.3022 97.3122 46.3349 95.935 43.4139L94.1986 39.7311C92.7897 36.7428 89.9829 34.9774 87.0409 34.9774H75.9592C73.0172 34.9774 70.2105 36.7428 68.8016 39.7311L67.0651 43.4139C65.688 46.3349 62.7995 48.3022 59.5116 48.3022L59.5046 48.3022L59.4972 48.3021L59.4814 48.302L59.4458 48.3016C59.4204 48.3011 59.3914 48.3004 59.3591 48.2993C59.2945 48.297 59.2162 48.293 59.1258 48.2862C58.9464 48.2726 58.7132 48.2472 58.4428 48.1994C57.917 48.1065 57.1694 47.9146 56.3849 47.4986C55.5836 47.0738 54.7094 46.3946 54.0467 45.3405C53.3766 44.2746 53.0445 43.0178 53.0445 41.6398C53.0445 39.1322 53.7394 35.7864 54.5622 32.6189C55.4088 29.3598 56.4832 25.9532 57.4092 23.1888C58.9525 18.5814 62.3929 14.4079 67.5587 13.1723C69.334 12.7477 71.4706 12.349 73.9677 12.0675Z" stroke="white" stroke-width="1.61186" mask="url(#path-1-inside-1_174_2195)"/>
<path d="M142.689 85.7337V67.0791H144.847L161.09 83.3619L160.901 83.8416C160.829 83.433 160.775 82.8822 160.739 82.1894C160.721 81.4787 160.694 80.7148 160.658 79.8975C160.64 79.0802 160.622 78.2719 160.604 77.4724C160.604 76.6729 160.595 75.9623 160.577 75.3404C160.577 74.7009 160.577 74.23 160.577 73.928V67.0791H162.682V85.7337H160.442L144.362 69.7973L144.416 69.2377C144.434 69.4687 144.452 69.824 144.47 70.3037C144.506 70.7656 144.542 71.3075 144.578 71.9293C144.614 72.5334 144.65 73.1641 144.686 73.8214C144.722 74.4788 144.749 75.1095 144.766 75.7135C144.784 76.3176 144.793 76.8328 144.793 77.2592V85.7337H142.689Z" fill="#DF571D"/>
<path d="M122.711 86.0003C121.038 86.0003 119.5 85.7604 118.097 85.2807C116.712 84.7833 115.507 84.1081 114.482 83.2554C113.474 82.3848 112.692 81.3721 112.134 80.2173C111.577 79.0447 111.298 77.7922 111.298 76.4597C111.298 75.1095 111.577 73.857 112.134 72.7022C112.692 71.5474 113.474 70.5347 114.482 69.6641C115.507 68.7758 116.712 68.0918 118.097 67.6121C119.5 67.1324 121.038 66.8926 122.711 66.8926C124.384 66.8926 125.913 67.1324 127.298 67.6121C128.683 68.0918 129.888 68.7669 130.913 69.6375C131.938 70.508 132.73 71.5296 133.287 72.7022C133.863 73.857 134.151 75.1095 134.151 76.4597C134.151 77.7922 133.863 79.0447 133.287 80.2173C132.73 81.3721 131.938 82.3848 130.913 83.2554C129.888 84.1259 128.683 84.801 127.298 85.2807C125.913 85.7604 124.384 86.0003 122.711 86.0003ZM122.711 83.9482C124.06 83.9482 125.301 83.7617 126.434 83.3886C127.567 83.0155 128.548 82.4914 129.375 81.8163C130.202 81.1234 130.841 80.3239 131.291 79.4178C131.74 78.5118 131.965 77.5257 131.965 76.4597C131.965 75.3938 131.74 74.3988 131.291 73.475C130.841 72.5511 130.202 71.7517 129.375 71.0765C128.548 70.4014 127.567 69.8773 126.434 69.5042C125.301 69.1134 124.06 68.9179 122.711 68.9179C121.344 68.9179 120.094 69.1134 118.96 69.5042C117.827 69.8773 116.847 70.4014 116.02 71.0765C115.21 71.7517 114.581 72.5511 114.131 73.475C113.699 74.3988 113.483 75.3938 113.483 76.4597C113.483 77.5257 113.699 78.5118 114.131 79.4178C114.581 80.3239 115.21 81.1234 116.02 81.8163C116.847 82.4914 117.827 83.0155 118.96 83.3886C120.094 83.7617 121.344 83.9482 122.711 83.9482Z" fill="#DF571D"/>
<path d="M88.3589 85.7337V67.0791H103.576V69.1045H90.4634V83.7084H103.522V85.7337H88.3589ZM89.4921 77.1526V75.1272H102.065V77.1526H89.4921Z" fill="white"/>
<path d="M56.793 85.7337V67.0791H58.8705L67.9361 78.3518H67.1267L76.2192 67.0791H78.2698V85.7337H76.1653V77.046C76.1473 75.5181 76.1653 74.1146 76.2192 72.8354C76.2732 71.5384 76.3811 70.2326 76.543 68.9179L76.8398 69.6641L68.2329 80.1906H66.7759L58.196 69.6641L58.5197 68.9179C58.6816 70.1971 58.7896 71.4851 58.8435 72.7821C58.8975 74.0613 58.9245 75.4826 58.9245 77.046L58.8975 85.7337H56.793Z" fill="white"/>
<path d="M28.2515 85.7337L37.452 67.0791H40.0961L49.2156 85.7337H46.8683L40.15 72.0359C39.9162 71.5029 39.7183 71.0765 39.5565 70.7567C39.4126 70.4369 39.2777 70.1616 39.1517 69.9306C39.0258 69.6996 38.8999 69.442 38.774 69.1578C38.6661 68.8735 38.5402 68.5093 38.3963 68.0651L39.0168 68.0385C38.819 68.5537 38.6481 68.9712 38.5042 69.291C38.3783 69.593 38.2524 69.8773 38.1265 70.1438C38.0006 70.3925 37.8567 70.6679 37.6948 70.9699C37.5509 71.272 37.362 71.6717 37.1282 72.1692L30.4639 85.7337H28.2515ZM32.0558 80.8569L32.9192 78.8315H44.467L44.8447 80.8569H32.0558Z" fill="white"/>
<path d="M11.8117 86.0007C10.2289 86.0007 8.74491 85.7875 7.35989 85.3611C5.97487 84.9169 4.75173 84.2862 3.69048 83.469C2.62924 82.6517 1.80182 81.6568 1.20824 80.4842C0.614661 79.2939 0.317871 77.9436 0.317871 76.4335C0.317871 75.0833 0.614661 73.8307 1.20824 72.6759C1.80182 71.5211 2.62024 70.5173 3.6635 69.6645C4.72475 68.794 5.96587 68.1277 7.38687 67.6658C8.80786 67.1861 10.3368 66.9463 11.9736 66.9463C13.2327 66.9463 14.4289 67.0884 15.5621 67.3727C16.6953 67.6392 17.7116 68.0034 18.6109 68.4653C19.5103 68.9095 20.2118 69.398 20.7154 69.931L19.4204 71.53C18.8088 71.0325 18.0983 70.5973 17.2889 70.2242C16.4974 69.8511 15.643 69.5491 14.7257 69.3181C13.8263 69.0871 12.918 68.9716 12.0006 68.9716C10.6695 68.9716 9.42842 69.1582 8.27724 69.5313C7.14404 69.9044 6.14575 70.4285 5.28236 71.1036C4.41897 71.761 3.75344 72.5427 3.28577 73.4488C2.8181 74.3548 2.58427 75.3498 2.58427 76.4335C2.58427 77.6416 2.8271 78.7165 3.31275 79.6581C3.79841 80.5997 4.47293 81.3903 5.33632 82.0299C6.2177 82.6695 7.22498 83.1492 8.35818 83.469C9.49138 83.7888 10.7055 83.9487 12.0006 83.9487C13.1698 83.9487 14.276 83.8154 15.3193 83.5489C16.3625 83.2824 17.2799 82.9093 18.0713 82.4296C18.8627 81.9322 19.4743 81.3725 19.906 80.7507C20.3557 80.1289 20.5625 79.4804 20.5266 78.8053V78.1124L21.0392 78.832H12.0006V76.8066H22.712C22.748 76.9665 22.766 77.1353 22.766 77.3129C22.784 77.4728 22.793 77.615 22.793 77.7393C22.811 77.8637 22.8199 77.9792 22.8199 78.0858C22.8199 79.2583 22.5411 80.3332 21.9835 81.3104C21.4259 82.2875 20.6525 83.1225 19.6632 83.8154C18.6739 84.5083 17.5137 85.0502 16.1826 85.441C14.8516 85.8141 13.3946 86.0007 11.8117 86.0007Z" fill="white"/>
</svg>
