<svg width="1148" height="217" viewBox="0 0 1148 217" fill="none" xmlns="http://www.w3.org/2000/svg">
<mask id="path-1-inside-1_6_1364" fill="white">
<path d="M83.2343 94.0333L75.9965 101.267L68.7588 94.0333V79.5667H83.2343V94.0333Z"/>
<path d="M79.6154 104.883L86.8532 97.65H101.329V112.117H86.8532L79.6154 104.883Z"/>
<path d="M83.2343 115.733V130.2H68.7588V115.733L75.9965 108.5L83.2343 115.733Z"/>
<path d="M65.1399 112.117H50.6644V97.65H65.1399L72.3777 104.883L65.1399 112.117Z"/>
<path d="M175.83 97.9655C178.12 98.6667 179.926 100.472 180.628 102.76C180.833 103.431 180.944 104.144 180.944 104.882C180.944 105.622 180.833 106.336 180.627 107.008C179.924 109.294 178.119 111.097 175.832 111.799C175.16 112.005 174.446 112.116 173.706 112.116C169.709 112.116 166.469 108.877 166.469 104.882C166.469 100.888 169.709 97.6491 173.706 97.6491C174.445 97.6491 175.159 97.7598 175.83 97.9655Z"/>
<path d="M181.261 117.225C181.963 114.939 183.768 113.136 186.055 112.435C186.727 112.228 187.441 112.118 188.181 112.118C188.922 112.118 189.637 112.229 190.31 112.436C192.595 113.137 194.398 114.939 195.101 117.223C195.307 117.896 195.419 118.61 195.419 119.351C195.419 123.346 192.178 126.584 188.181 126.584C184.184 126.584 180.943 123.346 180.943 119.351C180.943 118.611 181.054 117.897 181.261 117.225Z"/>
<path d="M200.529 111.798C198.244 111.096 196.441 109.294 195.739 107.01C195.532 106.337 195.421 105.623 195.421 104.882C195.421 104.143 195.532 103.43 195.738 102.758C196.44 100.472 198.244 98.6682 200.531 97.9665C201.204 97.7602 201.918 97.6491 202.658 97.6491C206.656 97.6491 209.896 100.888 209.896 104.882C209.896 108.877 206.656 112.116 202.658 112.116C201.917 112.116 201.202 112.004 200.529 111.798Z"/>
<path d="M188.181 97.65C188.921 97.65 189.635 97.5389 190.308 97.3326C192.595 96.6309 194.4 94.8271 195.102 92.5411C195.308 91.8693 195.419 91.156 195.419 90.4167C195.419 86.4218 192.178 83.1833 188.181 83.1833C184.184 83.1833 180.943 86.4218 180.943 90.4167C180.943 91.1552 181.054 91.8679 181.26 92.5391C181.962 94.8271 183.768 96.6324 186.057 97.3336C186.729 97.5393 187.442 97.65 188.181 97.65Z"/>
<path fill-rule="evenodd" clip-rule="evenodd" d="M97.7098 45.1286V32.55C97.7098 14.5731 112.292 0 130.28 0C148.268 0 162.85 14.5731 162.85 32.55V45.1286C174.295 46.3887 184.099 48.2125 192.254 50.1717C217.695 56.2834 234.099 76.7826 241.315 98.4171C245.345 110.501 250.048 125.469 253.767 139.847C257.333 153.635 260.559 168.943 260.56 180.832C260.56 187.989 258.834 194.814 255.125 200.741C251.462 206.592 246.636 210.342 242.282 212.661C238.034 214.923 234.026 215.949 231.245 216.442C229.806 216.698 228.556 216.835 227.575 216.91C227.081 216.947 226.644 216.97 226.274 216.983C226.004 216.993 225.734 216.998 225.465 217L225.445 217L225.413 217L225.395 217L225.379 217L225.364 217C208.147 217 193.206 206.655 186.144 191.61L178.636 175.616C173.659 165.016 163.977 159.133 154.238 159.133H106.321C96.5823 159.133 86.9004 165.016 81.9239 175.616L74.4157 191.61C67.3531 206.655 52.419 217 35.2019 217L35.1464 217L35.0941 217L34.9776 216.999L34.793 216.996C34.64 216.994 34.4705 216.989 34.2855 216.983C33.9158 216.97 33.4786 216.947 32.9843 216.91C32.0032 216.835 30.753 216.698 29.3145 216.442C26.5335 215.949 22.5252 214.923 18.2779 212.661C13.9235 210.342 9.09778 206.592 5.43533 200.741C1.72602 194.815 0 187.99 0 180.833C0 168.944 3.22692 153.635 6.79303 139.847C10.5118 125.469 15.2143 110.501 19.2445 98.4171C26.4601 76.7826 42.865 56.2834 68.3055 50.1717C76.4609 48.2125 86.2641 46.3887 97.7098 45.1286ZM104.948 32.55C104.948 18.568 116.289 7.23333 130.28 7.23333C144.27 7.23333 155.612 18.568 155.612 32.55V44.4291C147.842 43.7807 139.398 43.4 130.28 43.4C121.162 43.4 112.717 43.7807 104.948 44.4291V32.55ZM97.7098 52.4069V62.451C95.5465 63.7017 94.091 66.0393 94.091 68.7167C94.091 72.7115 97.3314 75.95 101.329 75.95C105.326 75.95 108.566 72.7115 108.566 68.7167C108.566 66.0393 107.111 63.7017 104.948 62.451V51.6883C112.684 51.0255 121.128 50.6333 130.28 50.6333C139.432 50.6333 147.876 51.0255 155.612 51.6883V62.451C153.449 63.7017 151.993 66.0393 151.993 68.7167C151.993 72.7115 155.234 75.95 159.231 75.95C163.228 75.95 166.469 72.7115 166.469 68.7167C166.469 66.0393 165.013 63.7017 162.85 62.451V52.4069C173.647 53.6291 182.886 55.3606 190.562 57.2047C212.899 62.5708 227.775 80.6955 234.449 100.704C238.453 112.71 243.098 127.504 246.759 141.657C250.317 155.413 253.322 169.942 253.322 180.833C253.322 186.817 251.886 192.275 248.989 196.905C246.123 201.483 242.343 204.432 238.878 206.277C235.486 208.084 232.253 208.917 229.979 209.321C228.81 209.528 227.802 209.638 227.026 209.697C226.635 209.727 226.297 209.744 226.017 209.754C225.818 209.761 225.619 209.765 225.42 209.767L225.388 209.767L225.358 209.767C211.141 209.767 198.651 201.223 192.696 188.538L185.188 172.544C179.096 159.567 166.96 151.9 154.238 151.9H106.321C93.5999 151.9 81.4635 159.567 75.3715 172.544L67.8632 188.538C61.9083 201.223 49.4187 209.767 35.2019 209.767L35.1714 209.767L35.1394 209.767L35.0712 209.766L34.9173 209.764C34.8072 209.762 34.6818 209.759 34.5421 209.754C34.263 209.744 33.9242 209.727 33.5337 209.697C32.7576 209.638 31.7493 209.528 30.5803 209.32C28.3065 208.917 25.0739 208.084 21.6816 206.277C18.2169 204.432 14.4368 201.483 11.5714 196.905C8.67388 192.276 7.23777 186.818 7.23777 180.833C7.23777 169.943 10.2426 155.413 13.8005 141.657C17.4611 127.504 22.1068 112.71 26.1109 100.704C32.7843 80.6955 47.6603 62.5708 69.9971 57.2047C77.6737 55.3606 86.9124 53.6291 97.7098 52.4069Z"/>
</mask>
<path d="M83.2343 94.0333L75.9965 101.267L68.7588 94.0333V79.5667H83.2343V94.0333Z" fill="white"/>
<path d="M79.6154 104.883L86.8532 97.65H101.329V112.117H86.8532L79.6154 104.883Z" fill="white"/>
<path d="M83.2343 115.733V130.2H68.7588V115.733L75.9965 108.5L83.2343 115.733Z" fill="white"/>
<path d="M65.1399 112.117H50.6644V97.65H65.1399L72.3777 104.883L65.1399 112.117Z" fill="white"/>
<path d="M175.83 97.9655C178.12 98.6667 179.926 100.472 180.628 102.76C180.833 103.431 180.944 104.144 180.944 104.882C180.944 105.622 180.833 106.336 180.627 107.008C179.924 109.294 178.119 111.097 175.832 111.799C175.16 112.005 174.446 112.116 173.706 112.116C169.709 112.116 166.469 108.877 166.469 104.882C166.469 100.888 169.709 97.6491 173.706 97.6491C174.445 97.6491 175.159 97.7598 175.83 97.9655Z" fill="white"/>
<path d="M181.261 117.225C181.963 114.939 183.768 113.136 186.055 112.435C186.727 112.228 187.441 112.118 188.181 112.118C188.922 112.118 189.637 112.229 190.31 112.436C192.595 113.137 194.398 114.939 195.101 117.223C195.307 117.896 195.419 118.61 195.419 119.351C195.419 123.346 192.178 126.584 188.181 126.584C184.184 126.584 180.943 123.346 180.943 119.351C180.943 118.611 181.054 117.897 181.261 117.225Z" fill="white"/>
<path d="M200.529 111.798C198.244 111.096 196.441 109.294 195.739 107.01C195.532 106.337 195.421 105.623 195.421 104.882C195.421 104.143 195.532 103.43 195.738 102.758C196.44 100.472 198.244 98.6682 200.531 97.9665C201.204 97.7602 201.918 97.6491 202.658 97.6491C206.656 97.6491 209.896 100.888 209.896 104.882C209.896 108.877 206.656 112.116 202.658 112.116C201.917 112.116 201.202 112.004 200.529 111.798Z" fill="white"/>
<path d="M188.181 97.65C188.921 97.65 189.635 97.5389 190.308 97.3326C192.595 96.6309 194.4 94.8271 195.102 92.5411C195.308 91.8693 195.419 91.156 195.419 90.4167C195.419 86.4218 192.178 83.1833 188.181 83.1833C184.184 83.1833 180.943 86.4218 180.943 90.4167C180.943 91.1552 181.054 91.8679 181.26 92.5391C181.962 94.8271 183.768 96.6324 186.057 97.3336C186.729 97.5393 187.442 97.65 188.181 97.65Z" fill="white"/>
<path fill-rule="evenodd" clip-rule="evenodd" d="M97.7098 45.1286V32.55C97.7098 14.5731 112.292 0 130.28 0C148.268 0 162.85 14.5731 162.85 32.55V45.1286C174.295 46.3887 184.099 48.2125 192.254 50.1717C217.695 56.2834 234.099 76.7826 241.315 98.4171C245.345 110.501 250.048 125.469 253.767 139.847C257.333 153.635 260.559 168.943 260.56 180.832C260.56 187.989 258.834 194.814 255.125 200.741C251.462 206.592 246.636 210.342 242.282 212.661C238.034 214.923 234.026 215.949 231.245 216.442C229.806 216.698 228.556 216.835 227.575 216.91C227.081 216.947 226.644 216.97 226.274 216.983C226.004 216.993 225.734 216.998 225.465 217L225.445 217L225.413 217L225.395 217L225.379 217L225.364 217C208.147 217 193.206 206.655 186.144 191.61L178.636 175.616C173.659 165.016 163.977 159.133 154.238 159.133H106.321C96.5823 159.133 86.9004 165.016 81.9239 175.616L74.4157 191.61C67.3531 206.655 52.419 217 35.2019 217L35.1464 217L35.0941 217L34.9776 216.999L34.793 216.996C34.64 216.994 34.4705 216.989 34.2855 216.983C33.9158 216.97 33.4786 216.947 32.9843 216.91C32.0032 216.835 30.753 216.698 29.3145 216.442C26.5335 215.949 22.5252 214.923 18.2779 212.661C13.9235 210.342 9.09778 206.592 5.43533 200.741C1.72602 194.815 0 187.99 0 180.833C0 168.944 3.22692 153.635 6.79303 139.847C10.5118 125.469 15.2143 110.501 19.2445 98.4171C26.4601 76.7826 42.865 56.2834 68.3055 50.1717C76.4609 48.2125 86.2641 46.3887 97.7098 45.1286ZM104.948 32.55C104.948 18.568 116.289 7.23333 130.28 7.23333C144.27 7.23333 155.612 18.568 155.612 32.55V44.4291C147.842 43.7807 139.398 43.4 130.28 43.4C121.162 43.4 112.717 43.7807 104.948 44.4291V32.55ZM97.7098 52.4069V62.451C95.5465 63.7017 94.091 66.0393 94.091 68.7167C94.091 72.7115 97.3314 75.95 101.329 75.95C105.326 75.95 108.566 72.7115 108.566 68.7167C108.566 66.0393 107.111 63.7017 104.948 62.451V51.6883C112.684 51.0255 121.128 50.6333 130.28 50.6333C139.432 50.6333 147.876 51.0255 155.612 51.6883V62.451C153.449 63.7017 151.993 66.0393 151.993 68.7167C151.993 72.7115 155.234 75.95 159.231 75.95C163.228 75.95 166.469 72.7115 166.469 68.7167C166.469 66.0393 165.013 63.7017 162.85 62.451V52.4069C173.647 53.6291 182.886 55.3606 190.562 57.2047C212.899 62.5708 227.775 80.6955 234.449 100.704C238.453 112.71 243.098 127.504 246.759 141.657C250.317 155.413 253.322 169.942 253.322 180.833C253.322 186.817 251.886 192.275 248.989 196.905C246.123 201.483 242.343 204.432 238.878 206.277C235.486 208.084 232.253 208.917 229.979 209.321C228.81 209.528 227.802 209.638 227.026 209.697C226.635 209.727 226.297 209.744 226.017 209.754C225.818 209.761 225.619 209.765 225.42 209.767L225.388 209.767L225.358 209.767C211.141 209.767 198.651 201.223 192.696 188.538L185.188 172.544C179.096 159.567 166.96 151.9 154.238 151.9H106.321C93.5999 151.9 81.4635 159.567 75.3715 172.544L67.8632 188.538C61.9083 201.223 49.4187 209.767 35.2019 209.767L35.1714 209.767L35.1394 209.767L35.0712 209.766L34.9173 209.764C34.8072 209.762 34.6818 209.759 34.5421 209.754C34.263 209.744 33.9242 209.727 33.5337 209.697C32.7576 209.638 31.7493 209.528 30.5803 209.32C28.3065 208.917 25.0739 208.084 21.6816 206.277C18.2169 204.432 14.4368 201.483 11.5714 196.905C8.67388 192.276 7.23777 186.818 7.23777 180.833C7.23777 169.943 10.2426 155.413 13.8005 141.657C17.4611 127.504 22.1068 112.71 26.1109 100.704C32.7843 80.6955 47.6603 62.5708 69.9971 57.2047C77.6737 55.3606 86.9124 53.6291 97.7098 52.4069Z" fill="white"/>
<path d="M83.2343 94.0333L75.9965 101.267L68.7588 94.0333V79.5667H83.2343V94.0333Z" stroke="white" stroke-width="2" mask="url(#path-1-inside-1_6_1364)"/>
<path d="M79.6154 104.883L86.8532 97.65H101.329V112.117H86.8532L79.6154 104.883Z" stroke="white" stroke-width="2" mask="url(#path-1-inside-1_6_1364)"/>
<path d="M83.2343 115.733V130.2H68.7588V115.733L75.9965 108.5L83.2343 115.733Z" stroke="white" stroke-width="2" mask="url(#path-1-inside-1_6_1364)"/>
<path d="M65.1399 112.117H50.6644V97.65H65.1399L72.3777 104.883L65.1399 112.117Z" stroke="white" stroke-width="2" mask="url(#path-1-inside-1_6_1364)"/>
<path d="M175.83 97.9655C178.12 98.6667 179.926 100.472 180.628 102.76C180.833 103.431 180.944 104.144 180.944 104.882C180.944 105.622 180.833 106.336 180.627 107.008C179.924 109.294 178.119 111.097 175.832 111.799C175.16 112.005 174.446 112.116 173.706 112.116C169.709 112.116 166.469 108.877 166.469 104.882C166.469 100.888 169.709 97.6491 173.706 97.6491C174.445 97.6491 175.159 97.7598 175.83 97.9655Z" stroke="white" stroke-width="2" mask="url(#path-1-inside-1_6_1364)"/>
<path d="M181.261 117.225C181.963 114.939 183.768 113.136 186.055 112.435C186.727 112.228 187.441 112.118 188.181 112.118C188.922 112.118 189.637 112.229 190.31 112.436C192.595 113.137 194.398 114.939 195.101 117.223C195.307 117.896 195.419 118.61 195.419 119.351C195.419 123.346 192.178 126.584 188.181 126.584C184.184 126.584 180.943 123.346 180.943 119.351C180.943 118.611 181.054 117.897 181.261 117.225Z" stroke="white" stroke-width="2" mask="url(#path-1-inside-1_6_1364)"/>
<path d="M200.529 111.798C198.244 111.096 196.441 109.294 195.739 107.01C195.532 106.337 195.421 105.623 195.421 104.882C195.421 104.143 195.532 103.43 195.738 102.758C196.44 100.472 198.244 98.6682 200.531 97.9665C201.204 97.7602 201.918 97.6491 202.658 97.6491C206.656 97.6491 209.896 100.888 209.896 104.882C209.896 108.877 206.656 112.116 202.658 112.116C201.917 112.116 201.202 112.004 200.529 111.798Z" stroke="white" stroke-width="2" mask="url(#path-1-inside-1_6_1364)"/>
<path d="M188.181 97.65C188.921 97.65 189.635 97.5389 190.308 97.3326C192.595 96.6309 194.4 94.8271 195.102 92.5411C195.308 91.8693 195.419 91.156 195.419 90.4167C195.419 86.4218 192.178 83.1833 188.181 83.1833C184.184 83.1833 180.943 86.4218 180.943 90.4167C180.943 91.1552 181.054 91.8679 181.26 92.5391C181.962 94.8271 183.768 96.6324 186.057 97.3336C186.729 97.5393 187.442 97.65 188.181 97.65Z" stroke="white" stroke-width="2" mask="url(#path-1-inside-1_6_1364)"/>
<path fill-rule="evenodd" clip-rule="evenodd" d="M97.7098 45.1286V32.55C97.7098 14.5731 112.292 0 130.28 0C148.268 0 162.85 14.5731 162.85 32.55V45.1286C174.295 46.3887 184.099 48.2125 192.254 50.1717C217.695 56.2834 234.099 76.7826 241.315 98.4171C245.345 110.501 250.048 125.469 253.767 139.847C257.333 153.635 260.559 168.943 260.56 180.832C260.56 187.989 258.834 194.814 255.125 200.741C251.462 206.592 246.636 210.342 242.282 212.661C238.034 214.923 234.026 215.949 231.245 216.442C229.806 216.698 228.556 216.835 227.575 216.91C227.081 216.947 226.644 216.97 226.274 216.983C226.004 216.993 225.734 216.998 225.465 217L225.445 217L225.413 217L225.395 217L225.379 217L225.364 217C208.147 217 193.206 206.655 186.144 191.61L178.636 175.616C173.659 165.016 163.977 159.133 154.238 159.133H106.321C96.5823 159.133 86.9004 165.016 81.9239 175.616L74.4157 191.61C67.3531 206.655 52.419 217 35.2019 217L35.1464 217L35.0941 217L34.9776 216.999L34.793 216.996C34.64 216.994 34.4705 216.989 34.2855 216.983C33.9158 216.97 33.4786 216.947 32.9843 216.91C32.0032 216.835 30.753 216.698 29.3145 216.442C26.5335 215.949 22.5252 214.923 18.2779 212.661C13.9235 210.342 9.09778 206.592 5.43533 200.741C1.72602 194.815 0 187.99 0 180.833C0 168.944 3.22692 153.635 6.79303 139.847C10.5118 125.469 15.2143 110.501 19.2445 98.4171C26.4601 76.7826 42.865 56.2834 68.3055 50.1717C76.4609 48.2125 86.2641 46.3887 97.7098 45.1286ZM104.948 32.55C104.948 18.568 116.289 7.23333 130.28 7.23333C144.27 7.23333 155.612 18.568 155.612 32.55V44.4291C147.842 43.7807 139.398 43.4 130.28 43.4C121.162 43.4 112.717 43.7807 104.948 44.4291V32.55ZM97.7098 52.4069V62.451C95.5465 63.7017 94.091 66.0393 94.091 68.7167C94.091 72.7115 97.3314 75.95 101.329 75.95C105.326 75.95 108.566 72.7115 108.566 68.7167C108.566 66.0393 107.111 63.7017 104.948 62.451V51.6883C112.684 51.0255 121.128 50.6333 130.28 50.6333C139.432 50.6333 147.876 51.0255 155.612 51.6883V62.451C153.449 63.7017 151.993 66.0393 151.993 68.7167C151.993 72.7115 155.234 75.95 159.231 75.95C163.228 75.95 166.469 72.7115 166.469 68.7167C166.469 66.0393 165.013 63.7017 162.85 62.451V52.4069C173.647 53.6291 182.886 55.3606 190.562 57.2047C212.899 62.5708 227.775 80.6955 234.449 100.704C238.453 112.71 243.098 127.504 246.759 141.657C250.317 155.413 253.322 169.942 253.322 180.833C253.322 186.817 251.886 192.275 248.989 196.905C246.123 201.483 242.343 204.432 238.878 206.277C235.486 208.084 232.253 208.917 229.979 209.321C228.81 209.528 227.802 209.638 227.026 209.697C226.635 209.727 226.297 209.744 226.017 209.754C225.818 209.761 225.619 209.765 225.42 209.767L225.388 209.767L225.358 209.767C211.141 209.767 198.651 201.223 192.696 188.538L185.188 172.544C179.096 159.567 166.96 151.9 154.238 151.9H106.321C93.5999 151.9 81.4635 159.567 75.3715 172.544L67.8632 188.538C61.9083 201.223 49.4187 209.767 35.2019 209.767L35.1714 209.767L35.1394 209.767L35.0712 209.766L34.9173 209.764C34.8072 209.762 34.6818 209.759 34.5421 209.754C34.263 209.744 33.9242 209.727 33.5337 209.697C32.7576 209.638 31.7493 209.528 30.5803 209.32C28.3065 208.917 25.0739 208.084 21.6816 206.277C18.2169 204.432 14.4368 201.483 11.5714 196.905C8.67388 192.276 7.23777 186.818 7.23777 180.833C7.23777 169.943 10.2426 155.413 13.8005 141.657C17.4611 127.504 22.1068 112.71 26.1109 100.704C32.7843 80.6955 47.6603 62.5708 69.9971 57.2047C77.6737 55.3606 86.9124 53.6291 97.7098 52.4069Z" stroke="white" stroke-width="2" mask="url(#path-1-inside-1_6_1364)"/>
<path d="M1069.58 148.82V67.5808H1113.68C1119.95 67.5808 1125.25 68.3932 1129.58 70.018C1133.91 71.5654 1137.2 73.8478 1139.45 76.8653C1141.77 79.8827 1142.93 83.5578 1142.93 87.8906C1142.93 92.4555 1141.5 96.2853 1138.63 99.3801C1135.77 102.475 1131.63 104.719 1126.22 106.111L1126.68 104.022C1130.39 104.719 1133.8 105.957 1136.89 107.736C1139.99 109.438 1142.46 111.721 1144.32 114.583C1146.25 117.446 1147.22 120.928 1147.22 125.029C1147.22 129.361 1146.33 133.075 1144.55 136.17C1142.77 139.187 1140.41 141.625 1137.47 143.481C1134.61 145.338 1131.36 146.692 1127.72 147.543C1124.17 148.394 1120.57 148.82 1116.93 148.82H1069.58ZM1078.75 140H1116.47C1120.41 140.077 1123.97 139.574 1127.14 138.491C1130.32 137.408 1132.87 135.744 1134.8 133.501C1136.74 131.257 1137.71 128.472 1137.71 125.145C1137.71 121.74 1136.66 118.994 1134.57 116.905C1132.48 114.816 1129.77 113.268 1126.45 112.262C1123.12 111.257 1119.6 110.754 1115.89 110.754H1078.75V140ZM1078.75 101.817H1115.77C1119.33 101.817 1122.42 101.314 1125.05 100.309C1127.69 99.3028 1129.74 97.8327 1131.21 95.8985C1132.68 93.9642 1133.41 91.6818 1133.41 89.0512C1133.41 84.7184 1131.67 81.5462 1128.19 79.5346C1124.71 77.4456 1120.14 76.4011 1114.49 76.4011H1078.75V101.817Z" fill="#DF571D"/>
<path d="M986.742 149.632C978.696 149.632 971.694 147.93 965.736 144.526C959.778 141.044 955.136 136.325 951.809 130.367C948.482 124.41 946.819 117.601 946.819 109.941V67.5808H955.871V109.593C955.871 115.628 957.225 121.005 959.933 125.725C962.641 130.367 966.316 134.003 970.959 136.634C975.678 139.265 980.939 140.58 986.742 140.58C992.932 140.58 998.386 139.265 1003.11 136.634C1007.83 134.003 1011.5 130.367 1014.13 125.725C1016.84 121.005 1018.19 115.628 1018.19 109.593V67.5808H1026.9V110.057C1026.9 117.64 1025.23 124.41 1021.91 130.367C1018.58 136.325 1013.9 141.044 1007.86 144.526C1001.91 147.93 994.866 149.632 986.742 149.632Z" fill="#DF571D"/>
<path d="M895.223 148.82V67.5808H904.276V148.82H895.223ZM824.661 148.82V67.5808H833.714V148.82H824.661ZM829.072 113.191L829.188 104.371H899.053V113.191H829.072Z" fill="#DF571D"/>
<path d="M719.259 148.82V67.5808H784.715V76.4011H728.311V140H784.482V148.82H719.259ZM724.133 111.45V102.63H778.215V111.45H724.133Z" fill="white"/>
<path d="M583.483 148.82V67.5808H592.419L631.414 116.672H627.932L667.043 67.5808H675.863V148.82H666.811V110.986C666.733 104.332 666.811 98.2196 667.043 92.6489C667.275 87.0008 667.739 81.3141 668.436 75.5887L669.712 78.8382L632.69 124.68H626.423L589.518 78.8382L590.91 75.5887C591.607 81.1594 592.071 86.7687 592.303 92.4168C592.535 97.9875 592.651 104.177 592.651 110.986L592.535 148.82H583.483Z" fill="white"/>
<path d="M460.714 148.82L500.289 67.5808H511.663L550.89 148.82H540.793L511.895 89.1672C510.889 86.8461 510.038 84.9892 509.342 83.5965C508.723 82.2039 508.142 81.0046 507.601 79.9988C507.059 78.993 506.518 77.8711 505.976 76.6332C505.512 75.3952 504.97 73.8091 504.351 71.8749L507.021 71.7588C506.169 74.0026 505.434 75.8208 504.815 77.2135C504.274 78.5288 503.732 79.7667 503.191 80.9272C502.649 82.0104 502.03 83.2097 501.334 84.525C500.715 85.8403 499.902 87.5811 498.897 89.7475L470.231 148.82H460.714ZM477.078 127.582L480.792 118.761H530.464L532.089 127.582H477.078Z" fill="white"/>
<path d="M389.999 149.98C383.191 149.98 376.808 149.052 370.85 147.195C364.893 145.26 359.631 142.514 355.067 138.955C350.502 135.396 346.943 131.063 344.389 125.956C341.836 120.773 340.56 114.892 340.56 108.316C340.56 102.436 341.836 96.9811 344.389 91.952C346.943 86.9229 350.463 82.5515 354.951 78.8377C359.515 75.0465 364.854 72.1452 370.966 70.1335C377.079 68.0445 383.655 67 390.696 67C396.112 67 401.257 67.619 406.131 68.8569C411.006 70.0175 415.377 71.6036 419.245 73.6152C423.114 75.5495 426.131 77.6771 428.298 79.9983L422.727 86.9616C420.097 84.7952 417.04 82.8997 413.559 81.2749C410.154 79.6501 406.479 78.3348 402.533 77.329C398.665 76.3232 394.758 75.8203 390.812 75.8203C385.086 75.8203 379.748 76.6326 374.796 78.2574C369.922 79.8822 365.628 82.1646 361.914 85.1047C358.2 87.9674 355.337 91.3718 353.326 95.3177C351.314 99.2636 350.308 103.596 350.308 108.316C350.308 113.577 351.353 118.258 353.442 122.359C355.531 126.459 358.432 129.902 362.146 132.688C365.937 135.473 370.27 137.562 375.144 138.955C380.019 140.347 385.241 141.044 390.812 141.044C395.841 141.044 400.599 140.463 405.087 139.303C409.574 138.142 413.52 136.518 416.924 134.429C420.329 132.262 422.959 129.825 424.816 127.117C426.75 124.409 427.64 121.585 427.485 118.645V115.627L429.691 118.761H390.812V109.941H436.886C437.041 110.637 437.118 111.372 437.118 112.146C437.195 112.842 437.234 113.461 437.234 114.003C437.312 114.544 437.35 115.047 437.35 115.511C437.35 120.618 436.151 125.299 433.752 129.554C431.354 133.81 428.027 137.446 423.772 140.463C419.516 143.481 414.526 145.841 408.8 147.543C403.075 149.168 396.808 149.98 389.999 149.98Z" fill="white"/>
</svg>
