<svg width="193" height="86" viewBox="0 0 193 86" fill="none" xmlns="http://www.w3.org/2000/svg">
<mask id="path-1-inside-1_174_2195" fill="white">
<path d="M85.6198 21.5932L83.9459 23.2542L82.2721 21.5932V18.2711H85.6198V21.5932Z"/>
<path d="M84.7829 24.0847L86.4568 22.4237H89.8046V25.7457H86.4568L84.7829 24.0847Z"/>
<path d="M85.6198 26.5762V29.8982H82.2721V26.5762L83.9459 24.9152L85.6198 26.5762Z"/>
<path d="M81.4351 25.7457H78.0873V22.4237H81.4351L83.109 24.0847L81.4351 25.7457Z"/>
<path d="M107.035 22.4961C107.564 22.6572 107.982 23.0717 108.144 23.5971C108.192 23.7512 108.217 23.9149 108.217 24.0845C108.217 24.2544 108.192 24.4183 108.144 24.5726C107.981 25.0975 107.564 25.5117 107.035 25.6727C106.88 25.72 106.715 25.7455 106.543 25.7455C105.619 25.7455 104.87 25.0018 104.87 24.0845C104.87 23.1671 105.619 22.4235 106.543 22.4235C106.714 22.4235 106.879 22.4489 107.035 22.4961Z"/>
<path d="M108.291 26.9188C108.453 26.3939 108.87 25.9797 109.399 25.8187C109.555 25.7714 109.72 25.7459 109.891 25.7459C110.062 25.7459 110.228 25.7715 110.383 25.8189C110.912 25.9801 111.329 26.3939 111.491 26.9183C111.539 27.0728 111.565 27.2369 111.565 27.4069C111.565 28.3243 110.815 29.0679 109.891 29.0679C108.967 29.0679 108.217 28.3243 108.217 27.4069C108.217 27.237 108.243 27.0731 108.291 26.9188Z"/>
<path d="M112.747 25.6725C112.218 25.5113 111.801 25.0975 111.639 24.5731C111.591 24.4186 111.565 24.2545 111.565 24.0845C111.565 23.9147 111.591 23.7509 111.639 23.5966C111.801 23.0717 112.218 22.6575 112.747 22.4964C112.903 22.449 113.068 22.4235 113.239 22.4235C114.164 22.4235 114.913 23.1671 114.913 24.0845C114.913 25.0018 114.164 25.7455 113.239 25.7455C113.068 25.7455 112.903 25.7199 112.747 25.6725Z"/>
<path d="M109.891 22.4237C110.062 22.4237 110.227 22.3982 110.383 22.3508C110.912 22.1896 111.329 21.7754 111.492 21.2505C111.539 21.0962 111.565 20.9324 111.565 20.7627C111.565 19.8453 110.815 19.1016 109.891 19.1016C108.967 19.1016 108.217 19.8453 108.217 20.7627C108.217 20.9323 108.243 21.0959 108.29 21.25C108.453 21.7754 108.87 22.19 109.4 22.351C109.555 22.3982 109.72 22.4237 109.891 22.4237Z"/>
<path fill-rule="evenodd" clip-rule="evenodd" d="M88.9676 10.363V7.47456C88.9676 3.34647 92.34 0 96.5001 0C100.66 0 104.033 3.34647 104.033 7.47456V10.363C106.68 10.6524 108.947 11.0712 110.833 11.5211C116.717 12.9245 120.511 17.6318 122.179 22.5998C123.111 25.3746 124.199 28.8118 125.059 32.1135C125.884 35.2796 126.63 38.7949 126.63 41.5251C126.63 43.1685 126.231 44.7358 125.373 46.0967C124.526 47.4404 123.41 48.3015 122.403 48.834C121.421 49.3534 120.494 49.589 119.85 49.7023C119.518 49.761 119.229 49.7925 119.002 49.8096C118.887 49.8183 118.787 49.8234 118.701 49.8265C118.638 49.8287 118.576 49.8299 118.514 49.8303L118.509 49.8303L118.502 49.8304L118.497 49.8304L118.494 49.8304L118.49 49.8304C114.509 49.8304 111.053 47.4548 109.42 44L107.683 40.3273C106.533 37.893 104.293 36.5423 102.041 36.5423H90.9592C88.7068 36.5423 86.4677 37.893 85.3168 40.3273L83.5803 44.0001C81.947 47.4548 78.4931 49.8304 74.5113 49.8304L74.4985 49.8304L74.4864 49.8303L74.4594 49.8302L74.4168 49.8296C74.3814 49.8289 74.3422 49.828 74.2994 49.8265C74.2139 49.8234 74.1128 49.8183 73.9985 49.8096C73.7715 49.7925 73.4824 49.761 73.1497 49.7023C72.5066 49.589 71.5796 49.3533 70.5973 48.8339C69.5902 48.3014 68.4742 47.4404 67.6272 46.0968C66.7693 44.7359 66.3701 43.1688 66.3701 41.5253C66.3701 38.7951 67.1164 35.2797 67.9412 32.1135C68.8012 28.8118 69.8888 25.3746 70.8208 22.5998C72.4896 17.6318 76.2836 12.9245 82.1672 11.5211C84.0533 11.0712 86.3205 10.6524 88.9676 10.363ZM90.6415 7.47456C90.6415 4.26382 93.2645 1.66101 96.5001 1.66101C99.7357 1.66101 102.359 4.26383 102.359 7.47456V10.2024C100.562 10.0535 98.6088 9.96608 96.5001 9.96608C94.3914 9.96608 92.4384 10.0535 90.6415 10.2024V7.47456ZM88.9676 12.0344V14.3408C88.4673 14.628 88.1307 15.1648 88.1307 15.7796C88.1307 16.697 88.8801 17.4406 89.8046 17.4406C90.729 17.4406 91.4784 16.697 91.4784 15.7796C91.4784 15.1648 91.1418 14.628 90.6415 14.3408V11.8693C92.4306 11.7171 94.3836 11.6271 96.5001 11.6271C98.6167 11.6271 100.57 11.7171 102.359 11.8693V14.3408C101.858 14.628 101.522 15.1648 101.522 15.7796C101.522 16.697 102.271 17.4406 103.196 17.4406C104.12 17.4406 104.87 16.697 104.87 15.7796C104.87 15.1648 104.533 14.628 104.033 14.3408V12.0344C106.53 12.315 108.666 12.7126 110.442 13.1361C115.608 14.3683 119.048 18.5304 120.591 23.1251C121.517 25.8819 122.592 29.2791 123.438 32.5292C124.261 35.6879 124.956 39.0244 124.956 41.5251C124.956 42.8993 124.624 44.1528 123.954 45.2158C123.291 46.2671 122.417 46.9444 121.616 47.3681C120.831 47.7829 120.084 47.9742 119.558 48.0669C119.287 48.1146 119.054 48.1399 118.875 48.1534C118.784 48.1602 118.706 48.1642 118.642 48.1665C118.595 48.1681 118.549 48.1691 118.503 48.1693L118.496 48.1694L118.489 48.1694C115.201 48.1694 112.312 46.2075 110.935 43.2946L109.199 39.6218C107.79 36.6418 104.983 34.8813 102.041 34.8813H90.9592C88.0171 34.8813 85.2103 36.6418 83.8014 39.6218L82.0649 43.2946C80.6877 46.2075 77.7992 48.1694 74.5113 48.1694L74.5043 48.1694L74.4969 48.1693L74.4811 48.1692L74.4455 48.1688C74.42 48.1684 74.391 48.1676 74.3587 48.1665C74.2942 48.1642 74.2158 48.1602 74.1255 48.1534C73.946 48.1399 73.7128 48.1146 73.4425 48.0669C72.9166 47.9742 72.169 47.7829 71.3845 47.3681C70.5832 46.9444 69.7089 46.2671 69.0463 45.2159C68.3761 44.1529 68.044 42.8996 68.044 41.5253C68.044 39.0246 68.7389 35.688 69.5618 32.5292C70.4084 29.2791 71.4828 25.8819 72.4088 23.1251C73.9522 18.5304 77.3926 14.3683 82.5585 13.1361C84.3338 12.7126 86.4705 12.315 88.9676 12.0344Z"/>
</mask>
<path d="M85.6198 21.5932L83.9459 23.2542L82.2721 21.5932V18.2711H85.6198V21.5932Z" fill="white"/>
<path d="M84.7829 24.0847L86.4568 22.4237H89.8046V25.7457H86.4568L84.7829 24.0847Z" fill="white"/>
<path d="M85.6198 26.5762V29.8982H82.2721V26.5762L83.9459 24.9152L85.6198 26.5762Z" fill="white"/>
<path d="M81.4351 25.7457H78.0873V22.4237H81.4351L83.109 24.0847L81.4351 25.7457Z" fill="white"/>
<path d="M107.035 22.4961C107.564 22.6572 107.982 23.0717 108.144 23.5971C108.192 23.7512 108.217 23.9149 108.217 24.0845C108.217 24.2544 108.192 24.4183 108.144 24.5726C107.981 25.0975 107.564 25.5117 107.035 25.6727C106.88 25.72 106.715 25.7455 106.543 25.7455C105.619 25.7455 104.87 25.0018 104.87 24.0845C104.87 23.1671 105.619 22.4235 106.543 22.4235C106.714 22.4235 106.879 22.4489 107.035 22.4961Z" fill="white"/>
<path d="M108.291 26.9188C108.453 26.3939 108.87 25.9797 109.399 25.8187C109.555 25.7714 109.72 25.7459 109.891 25.7459C110.062 25.7459 110.228 25.7715 110.383 25.8189C110.912 25.9801 111.329 26.3939 111.491 26.9183C111.539 27.0728 111.565 27.2369 111.565 27.4069C111.565 28.3243 110.815 29.0679 109.891 29.0679C108.967 29.0679 108.217 28.3243 108.217 27.4069C108.217 27.237 108.243 27.0731 108.291 26.9188Z" fill="white"/>
<path d="M112.747 25.6725C112.218 25.5113 111.801 25.0975 111.639 24.5731C111.591 24.4186 111.565 24.2545 111.565 24.0845C111.565 23.9147 111.591 23.7509 111.639 23.5966C111.801 23.0717 112.218 22.6575 112.747 22.4964C112.903 22.449 113.068 22.4235 113.239 22.4235C114.164 22.4235 114.913 23.1671 114.913 24.0845C114.913 25.0018 114.164 25.7455 113.239 25.7455C113.068 25.7455 112.903 25.7199 112.747 25.6725Z" fill="white"/>
<path d="M109.891 22.4237C110.062 22.4237 110.227 22.3982 110.383 22.3508C110.912 22.1896 111.329 21.7754 111.492 21.2505C111.539 21.0962 111.565 20.9324 111.565 20.7627C111.565 19.8453 110.815 19.1016 109.891 19.1016C108.967 19.1016 108.217 19.8453 108.217 20.7627C108.217 20.9323 108.243 21.0959 108.29 21.25C108.453 21.7754 108.87 22.19 109.4 22.351C109.555 22.3982 109.72 22.4237 109.891 22.4237Z" fill="white"/>
<path fill-rule="evenodd" clip-rule="evenodd" d="M88.9676 10.363V7.47456C88.9676 3.34647 92.34 0 96.5001 0C100.66 0 104.033 3.34647 104.033 7.47456V10.363C106.68 10.6524 108.947 11.0712 110.833 11.5211C116.717 12.9245 120.511 17.6318 122.179 22.5998C123.111 25.3746 124.199 28.8118 125.059 32.1135C125.884 35.2796 126.63 38.7949 126.63 41.5251C126.63 43.1685 126.231 44.7358 125.373 46.0967C124.526 47.4404 123.41 48.3015 122.403 48.834C121.421 49.3534 120.494 49.589 119.85 49.7023C119.518 49.761 119.229 49.7925 119.002 49.8096C118.887 49.8183 118.787 49.8234 118.701 49.8265C118.638 49.8287 118.576 49.8299 118.514 49.8303L118.509 49.8303L118.502 49.8304L118.497 49.8304L118.494 49.8304L118.49 49.8304C114.509 49.8304 111.053 47.4548 109.42 44L107.683 40.3273C106.533 37.893 104.293 36.5423 102.041 36.5423H90.9592C88.7068 36.5423 86.4677 37.893 85.3168 40.3273L83.5803 44.0001C81.947 47.4548 78.4931 49.8304 74.5113 49.8304L74.4985 49.8304L74.4864 49.8303L74.4594 49.8302L74.4168 49.8296C74.3814 49.8289 74.3422 49.828 74.2994 49.8265C74.2139 49.8234 74.1128 49.8183 73.9985 49.8096C73.7715 49.7925 73.4824 49.761 73.1497 49.7023C72.5066 49.589 71.5796 49.3533 70.5973 48.8339C69.5902 48.3014 68.4742 47.4404 67.6272 46.0968C66.7693 44.7359 66.3701 43.1688 66.3701 41.5253C66.3701 38.7951 67.1164 35.2797 67.9412 32.1135C68.8012 28.8118 69.8888 25.3746 70.8208 22.5998C72.4896 17.6318 76.2836 12.9245 82.1672 11.5211C84.0533 11.0712 86.3205 10.6524 88.9676 10.363ZM90.6415 7.47456C90.6415 4.26382 93.2645 1.66101 96.5001 1.66101C99.7357 1.66101 102.359 4.26383 102.359 7.47456V10.2024C100.562 10.0535 98.6088 9.96608 96.5001 9.96608C94.3914 9.96608 92.4384 10.0535 90.6415 10.2024V7.47456ZM88.9676 12.0344V14.3408C88.4673 14.628 88.1307 15.1648 88.1307 15.7796C88.1307 16.697 88.8801 17.4406 89.8046 17.4406C90.729 17.4406 91.4784 16.697 91.4784 15.7796C91.4784 15.1648 91.1418 14.628 90.6415 14.3408V11.8693C92.4306 11.7171 94.3836 11.6271 96.5001 11.6271C98.6167 11.6271 100.57 11.7171 102.359 11.8693V14.3408C101.858 14.628 101.522 15.1648 101.522 15.7796C101.522 16.697 102.271 17.4406 103.196 17.4406C104.12 17.4406 104.87 16.697 104.87 15.7796C104.87 15.1648 104.533 14.628 104.033 14.3408V12.0344C106.53 12.315 108.666 12.7126 110.442 13.1361C115.608 14.3683 119.048 18.5304 120.591 23.1251C121.517 25.8819 122.592 29.2791 123.438 32.5292C124.261 35.6879 124.956 39.0244 124.956 41.5251C124.956 42.8993 124.624 44.1528 123.954 45.2158C123.291 46.2671 122.417 46.9444 121.616 47.3681C120.831 47.7829 120.084 47.9742 119.558 48.0669C119.287 48.1146 119.054 48.1399 118.875 48.1534C118.784 48.1602 118.706 48.1642 118.642 48.1665C118.595 48.1681 118.549 48.1691 118.503 48.1693L118.496 48.1694L118.489 48.1694C115.201 48.1694 112.312 46.2075 110.935 43.2946L109.199 39.6218C107.79 36.6418 104.983 34.8813 102.041 34.8813H90.9592C88.0171 34.8813 85.2103 36.6418 83.8014 39.6218L82.0649 43.2946C80.6877 46.2075 77.7992 48.1694 74.5113 48.1694L74.5043 48.1694L74.4969 48.1693L74.4811 48.1692L74.4455 48.1688C74.42 48.1684 74.391 48.1676 74.3587 48.1665C74.2942 48.1642 74.2158 48.1602 74.1255 48.1534C73.946 48.1399 73.7128 48.1146 73.4425 48.0669C72.9166 47.9742 72.169 47.7829 71.3845 47.3681C70.5832 46.9444 69.7089 46.2671 69.0463 45.2159C68.3761 44.1529 68.044 42.8996 68.044 41.5253C68.044 39.0246 68.7389 35.688 69.5618 32.5292C70.4084 29.2791 71.4828 25.8819 72.4088 23.1251C73.9522 18.5304 77.3926 14.3683 82.5585 13.1361C84.3338 12.7126 86.4705 12.315 88.9676 12.0344Z" fill="white"/>
<path d="M85.6198 21.5932L83.9459 23.2542L82.2721 21.5932V18.2711H85.6198V21.5932Z" stroke="white" stroke-width="2" mask="url(#path-1-inside-1_174_2195)"/>
<path d="M84.7829 24.0847L86.4568 22.4237H89.8046V25.7457H86.4568L84.7829 24.0847Z" stroke="white" stroke-width="2" mask="url(#path-1-inside-1_174_2195)"/>
<path d="M85.6198 26.5762V29.8982H82.2721V26.5762L83.9459 24.9152L85.6198 26.5762Z" stroke="white" stroke-width="2" mask="url(#path-1-inside-1_174_2195)"/>
<path d="M81.4351 25.7457H78.0873V22.4237H81.4351L83.109 24.0847L81.4351 25.7457Z" stroke="white" stroke-width="2" mask="url(#path-1-inside-1_174_2195)"/>
<path d="M107.035 22.4961C107.564 22.6572 107.982 23.0717 108.144 23.5971C108.192 23.7512 108.217 23.9149 108.217 24.0845C108.217 24.2544 108.192 24.4183 108.144 24.5726C107.981 25.0975 107.564 25.5117 107.035 25.6727C106.88 25.72 106.715 25.7455 106.543 25.7455C105.619 25.7455 104.87 25.0018 104.87 24.0845C104.87 23.1671 105.619 22.4235 106.543 22.4235C106.714 22.4235 106.879 22.4489 107.035 22.4961Z" stroke="white" stroke-width="2" mask="url(#path-1-inside-1_174_2195)"/>
<path d="M108.291 26.9188C108.453 26.3939 108.87 25.9797 109.399 25.8187C109.555 25.7714 109.72 25.7459 109.891 25.7459C110.062 25.7459 110.228 25.7715 110.383 25.8189C110.912 25.9801 111.329 26.3939 111.491 26.9183C111.539 27.0728 111.565 27.2369 111.565 27.4069C111.565 28.3243 110.815 29.0679 109.891 29.0679C108.967 29.0679 108.217 28.3243 108.217 27.4069C108.217 27.237 108.243 27.0731 108.291 26.9188Z" stroke="white" stroke-width="2" mask="url(#path-1-inside-1_174_2195)"/>
<path d="M112.747 25.6725C112.218 25.5113 111.801 25.0975 111.639 24.5731C111.591 24.4186 111.565 24.2545 111.565 24.0845C111.565 23.9147 111.591 23.7509 111.639 23.5966C111.801 23.0717 112.218 22.6575 112.747 22.4964C112.903 22.449 113.068 22.4235 113.239 22.4235C114.164 22.4235 114.913 23.1671 114.913 24.0845C114.913 25.0018 114.164 25.7455 113.239 25.7455C113.068 25.7455 112.903 25.7199 112.747 25.6725Z" stroke="white" stroke-width="2" mask="url(#path-1-inside-1_174_2195)"/>
<path d="M109.891 22.4237C110.062 22.4237 110.227 22.3982 110.383 22.3508C110.912 22.1896 111.329 21.7754 111.492 21.2505C111.539 21.0962 111.565 20.9324 111.565 20.7627C111.565 19.8453 110.815 19.1016 109.891 19.1016C108.967 19.1016 108.217 19.8453 108.217 20.7627C108.217 20.9323 108.243 21.0959 108.29 21.25C108.453 21.7754 108.87 22.19 109.4 22.351C109.555 22.3982 109.72 22.4237 109.891 22.4237Z" stroke="white" stroke-width="2" mask="url(#path-1-inside-1_174_2195)"/>
<path fill-rule="evenodd" clip-rule="evenodd" d="M88.9676 10.363V7.47456C88.9676 3.34647 92.34 0 96.5001 0C100.66 0 104.033 3.34647 104.033 7.47456V10.363C106.68 10.6524 108.947 11.0712 110.833 11.5211C116.717 12.9245 120.511 17.6318 122.179 22.5998C123.111 25.3746 124.199 28.8118 125.059 32.1135C125.884 35.2796 126.63 38.7949 126.63 41.5251C126.63 43.1685 126.231 44.7358 125.373 46.0967C124.526 47.4404 123.41 48.3015 122.403 48.834C121.421 49.3534 120.494 49.589 119.85 49.7023C119.518 49.761 119.229 49.7925 119.002 49.8096C118.887 49.8183 118.787 49.8234 118.701 49.8265C118.638 49.8287 118.576 49.8299 118.514 49.8303L118.509 49.8303L118.502 49.8304L118.497 49.8304L118.494 49.8304L118.49 49.8304C114.509 49.8304 111.053 47.4548 109.42 44L107.683 40.3273C106.533 37.893 104.293 36.5423 102.041 36.5423H90.9592C88.7068 36.5423 86.4677 37.893 85.3168 40.3273L83.5803 44.0001C81.947 47.4548 78.4931 49.8304 74.5113 49.8304L74.4985 49.8304L74.4864 49.8303L74.4594 49.8302L74.4168 49.8296C74.3814 49.8289 74.3422 49.828 74.2994 49.8265C74.2139 49.8234 74.1128 49.8183 73.9985 49.8096C73.7715 49.7925 73.4824 49.761 73.1497 49.7023C72.5066 49.589 71.5796 49.3533 70.5973 48.8339C69.5902 48.3014 68.4742 47.4404 67.6272 46.0968C66.7693 44.7359 66.3701 43.1688 66.3701 41.5253C66.3701 38.7951 67.1164 35.2797 67.9412 32.1135C68.8012 28.8118 69.8888 25.3746 70.8208 22.5998C72.4896 17.6318 76.2836 12.9245 82.1672 11.5211C84.0533 11.0712 86.3205 10.6524 88.9676 10.363ZM90.6415 7.47456C90.6415 4.26382 93.2645 1.66101 96.5001 1.66101C99.7357 1.66101 102.359 4.26383 102.359 7.47456V10.2024C100.562 10.0535 98.6088 9.96608 96.5001 9.96608C94.3914 9.96608 92.4384 10.0535 90.6415 10.2024V7.47456ZM88.9676 12.0344V14.3408C88.4673 14.628 88.1307 15.1648 88.1307 15.7796C88.1307 16.697 88.8801 17.4406 89.8046 17.4406C90.729 17.4406 91.4784 16.697 91.4784 15.7796C91.4784 15.1648 91.1418 14.628 90.6415 14.3408V11.8693C92.4306 11.7171 94.3836 11.6271 96.5001 11.6271C98.6167 11.6271 100.57 11.7171 102.359 11.8693V14.3408C101.858 14.628 101.522 15.1648 101.522 15.7796C101.522 16.697 102.271 17.4406 103.196 17.4406C104.12 17.4406 104.87 16.697 104.87 15.7796C104.87 15.1648 104.533 14.628 104.033 14.3408V12.0344C106.53 12.315 108.666 12.7126 110.442 13.1361C115.608 14.3683 119.048 18.5304 120.591 23.1251C121.517 25.8819 122.592 29.2791 123.438 32.5292C124.261 35.6879 124.956 39.0244 124.956 41.5251C124.956 42.8993 124.624 44.1528 123.954 45.2158C123.291 46.2671 122.417 46.9444 121.616 47.3681C120.831 47.7829 120.084 47.9742 119.558 48.0669C119.287 48.1146 119.054 48.1399 118.875 48.1534C118.784 48.1602 118.706 48.1642 118.642 48.1665C118.595 48.1681 118.549 48.1691 118.503 48.1693L118.496 48.1694L118.489 48.1694C115.201 48.1694 112.312 46.2075 110.935 43.2946L109.199 39.6218C107.79 36.6418 104.983 34.8813 102.041 34.8813H90.9592C88.0171 34.8813 85.2103 36.6418 83.8014 39.6218L82.0649 43.2946C80.6877 46.2075 77.7992 48.1694 74.5113 48.1694L74.5043 48.1694L74.4969 48.1693L74.4811 48.1692L74.4455 48.1688C74.42 48.1684 74.391 48.1676 74.3587 48.1665C74.2942 48.1642 74.2158 48.1602 74.1255 48.1534C73.946 48.1399 73.7128 48.1146 73.4425 48.0669C72.9166 47.9742 72.169 47.7829 71.3845 47.3681C70.5832 46.9444 69.7089 46.2671 69.0463 45.2159C68.3761 44.1529 68.044 42.8996 68.044 41.5253C68.044 39.0246 68.7389 35.688 69.5618 32.5292C70.4084 29.2791 71.4828 25.8819 72.4088 23.1251C73.9522 18.5304 77.3926 14.3683 82.5585 13.1361C84.3338 12.7126 86.4705 12.315 88.9676 12.0344Z" stroke="white" stroke-width="2" mask="url(#path-1-inside-1_174_2195)"/>
<path d="M173.96 85.5978V66.8887H184.449C185.939 66.8887 187.2 67.0758 188.23 67.4499C189.261 67.8063 190.043 68.3319 190.576 69.0269C191.128 69.7218 191.404 70.5681 191.404 71.5659C191.404 72.6172 191.064 73.4992 190.383 74.2119C189.702 74.9247 188.718 75.4414 187.43 75.7621L187.54 75.281C188.423 75.4414 189.233 75.7265 189.969 76.1363C190.705 76.5283 191.294 77.0539 191.736 77.7132C192.196 78.3725 192.426 79.1743 192.426 80.1187C192.426 81.1165 192.214 81.9718 191.791 82.6845C191.368 83.3794 190.806 83.9407 190.107 84.3683C189.426 84.7959 188.653 85.1078 187.789 85.3038C186.942 85.4998 186.086 85.5978 185.222 85.5978H173.96ZM176.141 83.5665H185.111C186.05 83.5843 186.896 83.4685 187.65 83.219C188.405 82.9696 189.012 82.5865 189.472 82.0698C189.932 81.553 190.162 80.9116 190.162 80.1454C190.162 79.3614 189.914 78.7289 189.417 78.2478C188.92 77.7667 188.276 77.4103 187.485 77.1787C186.694 76.947 185.856 76.8312 184.973 76.8312H176.141V83.5665ZM176.141 74.7732H184.946C185.792 74.7732 186.528 74.6574 187.154 74.4258C187.779 74.1941 188.267 73.8556 188.617 73.4101C188.966 72.9647 189.141 72.439 189.141 71.8332C189.141 70.8354 188.727 70.1049 187.899 69.6416C187.071 69.1605 185.985 68.9199 184.642 68.9199H176.141V74.7732Z" fill="#DF571D"/>
<path d="M154.258 85.7849C152.344 85.7849 150.679 85.3929 149.262 84.6089C147.845 83.807 146.741 82.7201 145.95 81.3481C145.158 79.9761 144.763 78.4081 144.763 76.6441V66.8887H146.916V76.5639C146.916 77.9538 147.238 79.1921 147.882 80.279C148.526 81.3481 149.4 82.1856 150.504 82.7914C151.626 83.3972 152.878 83.7001 154.258 83.7001C155.73 83.7001 157.027 83.3972 158.15 82.7914C159.272 82.1856 160.146 81.3481 160.772 80.279C161.416 79.1921 161.738 77.9538 161.738 76.5639V66.8887H163.808V76.6709C163.808 78.417 163.412 79.9761 162.621 81.3481C161.83 82.7201 160.717 83.807 159.281 84.6089C157.864 85.3929 156.19 85.7849 154.258 85.7849Z" fill="#DF571D"/>
<path d="M132.492 85.5978V66.8887H134.645V85.5978H132.492ZM115.71 85.5978V66.8887H117.863V85.5978H115.71ZM116.759 77.3925L116.786 75.3612H133.403V77.3925H116.759Z" fill="#DF571D"/>
<path d="M90.6416 85.5978V66.8887H106.209V68.9199H92.7945V83.5665H106.154V85.5978H90.6416ZM91.8009 76.9916V74.9603H104.663V76.9916H91.8009Z" fill="white"/>
<path d="M58.3506 85.5978V66.8887H60.4759L69.7501 78.1943H68.9221L78.2239 66.8887H80.3217V85.5978H78.1687V76.8847C78.1503 75.3523 78.1687 73.9447 78.2239 72.6618C78.2791 71.361 78.3895 70.0514 78.5551 68.7329L78.8588 69.4812L70.0538 80.0385H68.5633L59.7859 69.4812L60.1171 68.7329C60.2827 70.0158 60.3931 71.3076 60.4483 72.6083C60.5035 73.8912 60.5311 75.3167 60.5311 76.8847L60.5035 85.5978H58.3506Z" fill="white"/>
<path d="M29.1509 85.5978L38.5631 66.8887H41.2681L50.5975 85.5978H48.1962L41.3233 71.8599C41.0841 71.3254 40.8817 70.8978 40.7161 70.577C40.5688 70.2563 40.4308 69.9801 40.302 69.7485C40.1732 69.5169 40.0444 69.2585 39.9156 68.9734C39.8052 68.6883 39.6764 68.323 39.5292 67.8776L40.164 67.8509C39.9616 68.3676 39.7868 68.7863 39.6396 69.107C39.5108 69.4099 39.382 69.695 39.2532 69.9623C39.1244 70.2118 38.9771 70.4879 38.8115 70.7909C38.6643 71.0938 38.4711 71.4947 38.2319 71.9936L31.4142 85.5978H29.1509ZM33.0427 80.7067L33.926 78.6754H45.7396L46.126 80.7067H33.0427Z" fill="white"/>
<path d="M12.3331 85.8649C10.7138 85.8649 9.19569 85.6511 7.77879 85.2234C6.3619 84.778 5.11061 84.1454 4.02494 83.3258C2.93927 82.5062 2.09281 81.5083 1.48557 80.3323C0.878327 79.1385 0.574707 77.7843 0.574707 76.2698C0.574707 74.9156 0.878327 73.6594 1.48557 72.5012C2.09281 71.3431 2.93007 70.3363 3.99734 69.4811C5.08301 68.608 6.3527 67.9398 7.80639 67.4765C9.26009 66.9954 10.8242 66.7549 12.4987 66.7549C13.7868 66.7549 15.0105 66.8974 16.1698 67.1825C17.329 67.4498 18.3687 67.8151 19.2888 68.2783C20.2088 68.7238 20.9265 69.2138 21.4417 69.7483L20.1168 71.352C19.4912 70.8531 18.7643 70.4165 17.9363 70.0423C17.1266 69.6682 16.2526 69.3652 15.3141 69.1336C14.394 68.902 13.4648 68.7862 12.5263 68.7862C11.1646 68.7862 9.89494 68.9732 8.71726 69.3474C7.55798 69.7216 6.53671 70.2472 5.65345 70.9243C4.77019 71.5836 4.08934 72.3676 3.61091 73.2763C3.13248 74.1851 2.89326 75.1829 2.89326 76.2698C2.89326 77.4814 3.14168 78.5594 3.63851 79.5038C4.13535 80.4482 4.82539 81.2411 5.70865 81.8825C6.61031 82.524 7.64078 83.0051 8.80006 83.3258C9.95934 83.6465 11.2014 83.8069 12.5263 83.8069C13.7224 83.8069 14.8541 83.6732 15.9213 83.406C16.9886 83.1387 17.9271 82.7645 18.7367 82.2834C19.5464 81.7845 20.172 81.2232 20.6137 80.5996C21.0737 79.976 21.2853 79.3256 21.2485 78.6485V77.9536L21.7729 78.6752H12.5263V76.644H23.4843C23.5211 76.8043 23.5395 76.9736 23.5395 77.1518C23.5579 77.3122 23.5671 77.4547 23.5671 77.5794C23.5855 77.7042 23.5947 77.82 23.5947 77.9269C23.5947 79.1029 23.3094 80.1809 22.739 81.1609C22.1686 82.1409 21.3773 82.9783 20.3652 83.6732C19.3532 84.3682 18.1663 84.9116 16.8046 85.3036C15.4429 85.6778 13.9524 85.8649 12.3331 85.8649Z" fill="white"/>
</svg>
