<svg width="26" height="27" viewBox="0 0 26 27" fill="none" xmlns="http://www.w3.org/2000/svg">
<path d="M24.9762 22.8642C25.7245 23.6624 25.7245 24.9095 24.9762 25.7077C24.1781 26.456 22.9309 26.456 22.1328 25.7077L16.1964 19.7214C14.1511 21.0683 11.6569 21.7667 8.96304 21.4175C4.37359 20.769 0.68208 17.0276 0.083456 12.4881C-0.764594 5.70366 4.97222 -0.0331491 11.7566 0.814901C16.2962 1.41353 20.0376 5.10504 20.6861 9.69449C21.0353 12.3883 20.3369 14.8826 18.99 16.878L24.9762 22.8642ZM3.97451 11.0913C3.97451 14.6331 6.81797 17.4766 10.3598 17.4766C13.8518 17.4766 16.7452 14.6331 16.7452 11.0913C16.7452 7.5993 13.8518 4.70596 10.3598 4.70596C6.81797 4.70596 3.97451 7.5993 3.97451 11.0913Z" fill="white"/>
</svg>
