<svg width="27" height="30" viewBox="0 0 27 30" fill="none" xmlns="http://www.w3.org/2000/svg">
<path d="M15.0398 1.875V3.04688C19.3171 3.92578 22.5398 7.67578 22.5398 12.1875V13.3008C22.5398 16.0547 23.5359 18.75 25.3523 20.8008L25.7624 21.2695C26.2898 21.8555 26.4069 22.6172 26.114 23.3203C25.821 23.9648 25.1179 24.375 24.4148 24.375H1.91476C1.15304 24.375 0.449916 23.9648 0.156948 23.3203C-0.136021 22.6172 -0.0188337 21.8555 0.50851 21.2695L0.918666 20.8008C2.73507 18.75 3.78976 16.0547 3.78976 13.3008V12.1875C3.78976 7.67578 6.95382 3.92578 11.2898 3.04688V1.875C11.2898 0.878906 12.1101 0 13.1648 0C14.1609 0 15.0398 0.878906 15.0398 1.875ZM13.1648 30C12.1687 30 11.1726 29.6484 10.4694 28.9453C9.76632 28.2422 9.41476 27.2461 9.41476 26.25H16.9148C16.9148 27.2461 16.5046 28.2422 15.8015 28.9453C15.0984 29.6484 14.1023 30 13.1648 30Z" fill="white"/>
</svg>
