<svg width="32" height="28" viewBox="0 0 32 28" fill="none" xmlns="http://www.w3.org/2000/svg">
<path d="M9.5 10.4852H22.4444L17.8889 1.94671C17.5556 1.2899 17.8333 0.468892 18.4444 0.140489C19.1111 -0.187914 19.9444 0.0857555 20.2778 0.687827L25.4444 10.4852H30.2222C31.1667 10.4852 32 11.3062 32 12.2367C32 13.2219 31.1667 13.9881 30.2222 13.9881L27.3333 25.3728C26.8889 26.9053 25.5 28 23.8889 28H8.05556C6.44444 28 5.05556 26.9053 4.61111 25.3728L1.77778 13.9881C0.777778 13.9881 0 13.2219 0 12.2367C0 11.3062 0.777778 10.4852 1.77778 10.4852H6.5L11.6667 0.687827C12 0.0857555 12.8333 -0.187914 13.5 0.140489C14.1111 0.468892 14.3889 1.2899 14.0556 1.94671L9.5 10.4852ZM10.6111 16.6154C10.6111 16.1775 10.2222 15.7396 9.72222 15.7396C9.27778 15.7396 8.83333 16.1775 8.83333 16.6154V21.8698C8.83333 22.3624 9.27778 22.7456 9.72222 22.7456C10.2222 22.7456 10.6111 22.3624 10.6111 21.8698V16.6154ZM15.0556 16.6154V21.8698C15.0556 22.3624 15.5 22.7456 15.9444 22.7456C16.4444 22.7456 16.8889 22.3624 16.8889 21.8698V16.6154C16.8889 16.1775 16.4444 15.7396 15.9444 15.7396C15.5 15.7396 15.0556 16.1775 15.0556 16.6154ZM23.1111 16.6154C23.1111 16.1775 22.6667 15.7396 22.2222 15.7396C21.7222 15.7396 21.3333 16.1775 21.3333 16.6154V21.8698C21.3333 22.3624 21.7222 22.7456 22.2222 22.7456C22.6667 22.7456 23.1111 22.3624 23.1111 21.8698V16.6154Z" fill="white"/>
</svg>
