<svg width="32" height="32" viewBox="0 0 32 32" fill="none" xmlns="http://www.w3.org/2000/svg">
<path d="M31.5 16C31.5 24.5625 24.5 31.5 15.9375 31.5C8.8125 31.5 2.875 26.75 1 20.25L6.9375 22.6875C7.375 24.6875 9.125 26.25 11.25 26.25C13.6875 26.25 15.75 24.1875 15.625 21.625L20.9375 17.875C24.1875 17.9375 26.9375 15.3125 26.9375 12.0625C26.9375 8.8125 24.3125 6.1875 21.0625 6.1875C17.8125 6.1875 15.1875 8.8125 15.1875 12.0625V12.125L11.5 17.4375C10.5625 17.4375 9.5625 17.6875 8.8125 18.25L0.5 14.8125C1.125 6.8125 7.8125 0.5 15.9375 0.5C24.5 0.5 31.5 7.4375 31.5 16ZM10.1875 24.0625L8.3125 23.25C8.625 24 9.25 24.5625 10 24.875C11.6875 25.5625 13.625 24.75 14.3125 23.125C14.625 22.3125 14.625 21.375 14.3125 20.5625C14 19.75 13.375 19.125 12.5625 18.8125C11.75 18.4375 10.875 18.4375 10.125 18.75L12.0625 19.5625C13.3125 20.0625 13.875 21.5 13.375 22.75C12.875 24 11.4375 24.5625 10.1875 24.0625ZM21.0625 15.9375C18.9375 15.9375 17.1875 14.1875 17.1875 12.0625C17.1875 9.875 18.9375 8.125 21.0625 8.125C23.1875 8.125 24.9375 9.875 24.9375 12.0625C24.9375 14.1875 23.25 15.9375 21.0625 15.9375ZM21.0625 14.9375C22.6875 14.9375 24 13.625 24 12C24 10.4375 22.6875 9.125 21.0625 9.125C19.4375 9.125 18.125 10.4375 18.125 12C18.125 13.625 19.4375 14.9375 21.0625 14.9375Z" fill="#D2D2D2"/>
</svg>
