<svg xmlns:dc="http://purl.org/dc/elements/1.1/" xmlns:cc="http://creativecommons.org/ns#" xmlns:rdf="http://www.w3.org/1999/02/22-rdf-syntax-ns#" xmlns:svg="http://www.w3.org/2000/svg" xmlns="http://www.w3.org/2000/svg" xmlns:sodipodi="http://sodipodi.sourceforge.net/DTD/sodipodi-0.dtd" xmlns:inkscape="http://www.inkscape.org/namespaces/inkscape" version="1.1" x="0px" y="0px" viewBox="0 0 100 125"><g transform="translate(0,-952.36218)"><path style="opacity:1;fill:#000000;fill-opacity:1;stroke:none;stroke-width:10;stroke-linecap:round;stroke-linejoin:round;stroke-miterlimit:4;stroke-dasharray:none;stroke-opacity:1" d="M 50 5 C 45.499626 5.0000001 44.272809 11.235608 39.925781 12.400391 C 35.578754 13.565173 31.397438 8.7791097 27.5 11.029297 C 23.602562 13.279484 25.658807 19.294317 22.476562 22.476562 C 19.294317 25.658808 13.279484 23.602562 11.029297 27.5 C 8.77911 31.397438 13.565173 35.578754 12.400391 39.925781 C 11.235608 44.272809 4.9999999 45.499626 5 50 C 5.0000001 54.500374 11.235608 55.727191 12.400391 60.074219 C 13.565173 64.421246 8.7791097 68.602562 11.029297 72.5 C 13.279484 76.397438 19.294317 74.341193 22.476562 77.523438 C 25.658808 80.705683 23.602562 86.720516 27.5 88.970703 C 31.397438 91.22089 35.578754 86.434827 39.925781 87.599609 C 44.272809 88.764392 45.499626 95 50 95 C 54.500374 95 55.727191 88.764392 60.074219 87.599609 C 64.421246 86.434827 68.602562 91.22089 72.5 88.970703 C 76.397438 86.720516 74.341193 80.705683 77.523438 77.523438 C 80.705683 74.341192 86.720516 76.397438 88.970703 72.5 C 91.22089 68.602562 86.434827 64.421246 87.599609 60.074219 C 88.764392 55.727191 95 54.500374 95 50 C 95 45.499626 88.764392 44.272809 87.599609 39.925781 C 86.434827 35.578754 91.22089 31.397438 88.970703 27.5 C 86.720516 23.602562 80.705683 25.658807 77.523438 22.476562 C 74.341192 19.294317 76.397438 13.279484 72.5 11.029297 C 68.602562 8.77911 64.421246 13.565173 60.074219 12.400391 C 55.727191 11.235608 54.500374 4.9999999 50 5 z M 50 20 A 30 30 0 0 1 80 50 A 30 30 0 0 1 50 80 A 30 30 0 0 1 20 50 A 30 30 0 0 1 50 20 z " transform="translate(0,952.36218)"/><path style="opacity:1;fill:#000000;fill-opacity:1;stroke:none;stroke-width:10;stroke-linecap:round;stroke-linejoin:round;stroke-miterlimit:4;stroke-dasharray:none;stroke-opacity:1" d="m 50,974.86218 c -13.807142,0 -27.500033,13.69286 -27.5,27.50002 0,13.8071 13.692881,27.5 27.5,27.5 13.807119,0 27.5,-13.6929 27.5,-27.5 3.3e-5,-13.80716 -13.692858,-27.50002 -27.5,-27.50002 z m 12.59375,14.98824 c 2.043133,0.0578 3.157423,2.40958 1.908203,4.02735 l -15,20.00003 c -0.912966,1.2167 -2.691802,1.3431 -3.767578,0.2676 l -10,-10 c -2.452665,-2.3563 1.178839,-5.98784 3.535156,-3.5352 l 7.960938,7.961 13.271484,-17.69343 c 0.485277,-0.66634 1.267808,-1.05067 2.091797,-1.02735 z"/></g></svg>