<svg width="33" height="26" viewBox="0 0 33 26" fill="none" xmlns="http://www.w3.org/2000/svg">
<path d="M29.1875 6.5C29.1875 6.8125 29.1875 7.0625 29.1875 7.375C29.1875 16.0625 22.625 26 10.5625 26C6.8125 26 3.375 24.9375 0.5 23.0625C1 23.125 1.5 23.1875 2.0625 23.1875C5.125 23.1875 7.9375 22.125 10.1875 20.375C7.3125 20.3125 4.875 18.4375 4.0625 15.8125C4.5 15.875 4.875 15.9375 5.3125 15.9375C5.875 15.9375 6.5 15.8125 7 15.6875C4 15.0625 1.75 12.4375 1.75 9.25V9.1875C2.625 9.6875 3.6875 9.9375 4.75 10C2.9375 8.8125 1.8125 6.8125 1.8125 4.5625C1.8125 3.3125 2.125 2.1875 2.6875 1.25C5.9375 5.1875 10.8125 7.8125 16.25 8.125C16.125 7.625 16.0625 7.125 16.0625 6.625C16.0625 3 19 0.0625 22.625 0.0625C24.5 0.0625 26.1875 0.8125 27.4375 2.125C28.875 1.8125 30.3125 1.25 31.5625 0.5C31.0625 2.0625 30.0625 3.3125 28.6875 4.125C30 4 31.3125 3.625 32.4375 3.125C31.5625 4.4375 30.4375 5.5625 29.1875 6.5Z" fill="#D2D2D2"/>
</svg>
