<svg width="40" height="27" viewBox="0 0 40 27" fill="none" xmlns="http://www.w3.org/2000/svg">
<path d="M38.6016 4.28906C39.4453 7.24219 39.4453 13.5703 39.4453 13.5703C39.4453 13.5703 39.4453 19.8281 38.6016 22.8516C38.1797 24.5391 36.8438 25.8047 35.2266 26.2266C32.2031 27 20.25 27 20.25 27C20.25 27 8.22656 27 5.20312 26.2266C3.58594 25.8047 2.25 24.5391 1.82812 22.8516C0.984375 19.8281 0.984375 13.5703 0.984375 13.5703C0.984375 13.5703 0.984375 7.24219 1.82812 4.28906C2.25 2.60156 3.58594 1.26562 5.20312 0.84375C8.22656 0 20.25 0 20.25 0C20.25 0 32.2031 0 35.2266 0.84375C36.8438 1.26562 38.1797 2.60156 38.6016 4.28906ZM16.3125 19.2656L26.2969 13.5703L16.3125 7.875V19.2656Z" fill="#D2D2D2"/>
</svg>
