<svg width="25" height="29" viewBox="0 0 25 29" fill="none" xmlns="http://www.w3.org/2000/svg">
<path d="M20.375 14.8125C20.375 14.9375 20.1875 18.625 24.25 20.5625C23.5 22.875 20.875 28 17.8125 28C16.0625 28 15.0625 26.875 13.0625 26.875C11 26.875 9.875 28 8.3125 28C5.3125 28.125 2.4375 22.5 1.625 20.1875C1 18.4375 0.75 16.75 0.75 15.125C0.75 9.5625 4.4375 6.875 7.9375 6.8125C9.625 6.8125 11.75 8 12.6875 8C13.5625 8 16 6.5625 18.25 6.75C20.5625 6.9375 22.3125 7.8125 23.5 9.5C21.4375 10.8125 20.375 12.5 20.375 14.8125ZM16.875 4.5625C15.625 6 14.125 6.8125 12.5 6.6875C12.375 5 13 3.4375 14.125 2.1875C15.125 1.0625 16.875 0.125 18.375 0C18.375 0.6875 18.5625 2.5625 16.875 4.5625Z" fill="#D2D2D2"/>
</svg>
