<svg width="1035" height="217" viewBox="0 0 1035 217" fill="none" xmlns="http://www.w3.org/2000/svg">
<mask id="path-1-inside-1_6_1364" fill="white">
<path d="M83.2343 94.0333L75.9965 101.267L68.7588 94.0333V79.5667H83.2343V94.0333Z"/>
<path d="M79.6154 104.883L86.8532 97.65H101.329V112.117H86.8532L79.6154 104.883Z"/>
<path d="M83.2343 115.733V130.2H68.7588V115.733L75.9965 108.5L83.2343 115.733Z"/>
<path d="M65.1399 112.117H50.6644V97.65H65.1399L72.3777 104.883L65.1399 112.117Z"/>
<path d="M175.83 97.9655C178.12 98.6667 179.926 100.472 180.628 102.76C180.833 103.431 180.944 104.144 180.944 104.882C180.944 105.622 180.833 106.336 180.627 107.008C179.924 109.294 178.119 111.097 175.832 111.799C175.16 112.005 174.446 112.116 173.706 112.116C169.709 112.116 166.469 108.877 166.469 104.882C166.469 100.888 169.709 97.6491 173.706 97.6491C174.445 97.6491 175.159 97.7598 175.83 97.9655Z"/>
<path d="M181.261 117.225C181.963 114.939 183.768 113.136 186.055 112.435C186.727 112.228 187.441 112.118 188.181 112.118C188.922 112.118 189.637 112.229 190.31 112.436C192.595 113.137 194.398 114.939 195.101 117.223C195.307 117.896 195.419 118.61 195.419 119.351C195.419 123.346 192.178 126.584 188.181 126.584C184.184 126.584 180.943 123.346 180.943 119.351C180.943 118.611 181.054 117.897 181.261 117.225Z"/>
<path d="M200.529 111.798C198.244 111.096 196.441 109.294 195.739 107.01C195.532 106.337 195.421 105.623 195.421 104.882C195.421 104.143 195.532 103.43 195.738 102.758C196.44 100.472 198.244 98.6682 200.531 97.9665C201.204 97.7602 201.918 97.6491 202.658 97.6491C206.656 97.6491 209.896 100.888 209.896 104.882C209.896 108.877 206.656 112.116 202.658 112.116C201.917 112.116 201.202 112.004 200.529 111.798Z"/>
<path d="M188.181 97.65C188.921 97.65 189.635 97.5389 190.308 97.3326C192.595 96.6309 194.4 94.8271 195.102 92.5411C195.308 91.8693 195.419 91.156 195.419 90.4167C195.419 86.4218 192.178 83.1833 188.181 83.1833C184.184 83.1833 180.943 86.4218 180.943 90.4167C180.943 91.1552 181.054 91.8679 181.26 92.5391C181.962 94.8271 183.768 96.6324 186.057 97.3336C186.729 97.5393 187.442 97.65 188.181 97.65Z"/>
<path fill-rule="evenodd" clip-rule="evenodd" d="M97.7098 45.1286V32.55C97.7098 14.5731 112.292 0 130.28 0C148.268 0 162.85 14.5731 162.85 32.55V45.1286C174.295 46.3887 184.099 48.2125 192.254 50.1717C217.695 56.2834 234.099 76.7826 241.315 98.4171C245.345 110.501 250.048 125.469 253.767 139.847C257.333 153.635 260.559 168.943 260.56 180.832C260.56 187.989 258.834 194.814 255.125 200.741C251.462 206.592 246.636 210.342 242.282 212.661C238.034 214.923 234.026 215.949 231.245 216.442C229.806 216.698 228.556 216.835 227.575 216.91C227.081 216.947 226.644 216.97 226.274 216.983C226.004 216.993 225.734 216.998 225.465 217L225.445 217L225.413 217L225.395 217L225.379 217L225.364 217C208.147 217 193.206 206.655 186.144 191.61L178.636 175.616C173.659 165.016 163.977 159.133 154.238 159.133H106.321C96.5823 159.133 86.9004 165.016 81.9239 175.616L74.4157 191.61C67.3531 206.655 52.419 217 35.2019 217L35.1464 217L35.0941 217L34.9776 216.999L34.793 216.996C34.64 216.994 34.4705 216.989 34.2855 216.983C33.9158 216.97 33.4786 216.947 32.9843 216.91C32.0032 216.835 30.753 216.698 29.3145 216.442C26.5335 215.949 22.5252 214.923 18.2779 212.661C13.9235 210.342 9.09778 206.592 5.43533 200.741C1.72602 194.815 0 187.99 0 180.833C0 168.944 3.22692 153.635 6.79303 139.847C10.5118 125.469 15.2143 110.501 19.2445 98.4171C26.4601 76.7826 42.865 56.2834 68.3055 50.1717C76.4609 48.2125 86.2641 46.3887 97.7098 45.1286ZM104.948 32.55C104.948 18.568 116.289 7.23333 130.28 7.23333C144.27 7.23333 155.612 18.568 155.612 32.55V44.4291C147.842 43.7807 139.398 43.4 130.28 43.4C121.162 43.4 112.717 43.7807 104.948 44.4291V32.55ZM97.7098 52.4069V62.451C95.5465 63.7017 94.091 66.0393 94.091 68.7167C94.091 72.7115 97.3314 75.95 101.329 75.95C105.326 75.95 108.566 72.7115 108.566 68.7167C108.566 66.0393 107.111 63.7017 104.948 62.451V51.6883C112.684 51.0255 121.128 50.6333 130.28 50.6333C139.432 50.6333 147.876 51.0255 155.612 51.6883V62.451C153.449 63.7017 151.993 66.0393 151.993 68.7167C151.993 72.7115 155.234 75.95 159.231 75.95C163.228 75.95 166.469 72.7115 166.469 68.7167C166.469 66.0393 165.013 63.7017 162.85 62.451V52.4069C173.647 53.6291 182.886 55.3606 190.562 57.2047C212.899 62.5708 227.775 80.6955 234.449 100.704C238.453 112.71 243.098 127.504 246.759 141.657C250.317 155.413 253.322 169.942 253.322 180.833C253.322 186.817 251.886 192.275 248.989 196.905C246.123 201.483 242.343 204.432 238.878 206.277C235.486 208.084 232.253 208.917 229.979 209.321C228.81 209.528 227.802 209.638 227.026 209.697C226.635 209.727 226.297 209.744 226.017 209.754C225.818 209.761 225.619 209.765 225.42 209.767L225.388 209.767L225.358 209.767C211.141 209.767 198.651 201.223 192.696 188.538L185.188 172.544C179.096 159.567 166.96 151.9 154.238 151.9H106.321C93.5999 151.9 81.4635 159.567 75.3715 172.544L67.8632 188.538C61.9083 201.223 49.4187 209.767 35.2019 209.767L35.1714 209.767L35.1394 209.767L35.0712 209.766L34.9173 209.764C34.8072 209.762 34.6818 209.759 34.5421 209.754C34.263 209.744 33.9242 209.727 33.5337 209.697C32.7576 209.638 31.7493 209.528 30.5803 209.32C28.3065 208.917 25.0739 208.084 21.6816 206.277C18.2169 204.432 14.4368 201.483 11.5714 196.905C8.67388 192.276 7.23777 186.818 7.23777 180.833C7.23777 169.943 10.2426 155.413 13.8005 141.657C17.4611 127.504 22.1068 112.71 26.1109 100.704C32.7843 80.6955 47.6603 62.5708 69.9971 57.2047C77.6737 55.3606 86.9124 53.6291 97.7098 52.4069Z"/>
</mask>
<path d="M83.2343 94.0333L75.9965 101.267L68.7588 94.0333V79.5667H83.2343V94.0333Z" fill="white"/>
<path d="M79.6154 104.883L86.8532 97.65H101.329V112.117H86.8532L79.6154 104.883Z" fill="white"/>
<path d="M83.2343 115.733V130.2H68.7588V115.733L75.9965 108.5L83.2343 115.733Z" fill="white"/>
<path d="M65.1399 112.117H50.6644V97.65H65.1399L72.3777 104.883L65.1399 112.117Z" fill="white"/>
<path d="M175.83 97.9655C178.12 98.6667 179.926 100.472 180.628 102.76C180.833 103.431 180.944 104.144 180.944 104.882C180.944 105.622 180.833 106.336 180.627 107.008C179.924 109.294 178.119 111.097 175.832 111.799C175.16 112.005 174.446 112.116 173.706 112.116C169.709 112.116 166.469 108.877 166.469 104.882C166.469 100.888 169.709 97.6491 173.706 97.6491C174.445 97.6491 175.159 97.7598 175.83 97.9655Z" fill="white"/>
<path d="M181.261 117.225C181.963 114.939 183.768 113.136 186.055 112.435C186.727 112.228 187.441 112.118 188.181 112.118C188.922 112.118 189.637 112.229 190.31 112.436C192.595 113.137 194.398 114.939 195.101 117.223C195.307 117.896 195.419 118.61 195.419 119.351C195.419 123.346 192.178 126.584 188.181 126.584C184.184 126.584 180.943 123.346 180.943 119.351C180.943 118.611 181.054 117.897 181.261 117.225Z" fill="white"/>
<path d="M200.529 111.798C198.244 111.096 196.441 109.294 195.739 107.01C195.532 106.337 195.421 105.623 195.421 104.882C195.421 104.143 195.532 103.43 195.738 102.758C196.44 100.472 198.244 98.6682 200.531 97.9665C201.204 97.7602 201.918 97.6491 202.658 97.6491C206.656 97.6491 209.896 100.888 209.896 104.882C209.896 108.877 206.656 112.116 202.658 112.116C201.917 112.116 201.202 112.004 200.529 111.798Z" fill="white"/>
<path d="M188.181 97.65C188.921 97.65 189.635 97.5389 190.308 97.3326C192.595 96.6309 194.4 94.8271 195.102 92.5411C195.308 91.8693 195.419 91.156 195.419 90.4167C195.419 86.4218 192.178 83.1833 188.181 83.1833C184.184 83.1833 180.943 86.4218 180.943 90.4167C180.943 91.1552 181.054 91.8679 181.26 92.5391C181.962 94.8271 183.768 96.6324 186.057 97.3336C186.729 97.5393 187.442 97.65 188.181 97.65Z" fill="white"/>
<path fill-rule="evenodd" clip-rule="evenodd" d="M97.7098 45.1286V32.55C97.7098 14.5731 112.292 0 130.28 0C148.268 0 162.85 14.5731 162.85 32.55V45.1286C174.295 46.3887 184.099 48.2125 192.254 50.1717C217.695 56.2834 234.099 76.7826 241.315 98.4171C245.345 110.501 250.048 125.469 253.767 139.847C257.333 153.635 260.559 168.943 260.56 180.832C260.56 187.989 258.834 194.814 255.125 200.741C251.462 206.592 246.636 210.342 242.282 212.661C238.034 214.923 234.026 215.949 231.245 216.442C229.806 216.698 228.556 216.835 227.575 216.91C227.081 216.947 226.644 216.97 226.274 216.983C226.004 216.993 225.734 216.998 225.465 217L225.445 217L225.413 217L225.395 217L225.379 217L225.364 217C208.147 217 193.206 206.655 186.144 191.61L178.636 175.616C173.659 165.016 163.977 159.133 154.238 159.133H106.321C96.5823 159.133 86.9004 165.016 81.9239 175.616L74.4157 191.61C67.3531 206.655 52.419 217 35.2019 217L35.1464 217L35.0941 217L34.9776 216.999L34.793 216.996C34.64 216.994 34.4705 216.989 34.2855 216.983C33.9158 216.97 33.4786 216.947 32.9843 216.91C32.0032 216.835 30.753 216.698 29.3145 216.442C26.5335 215.949 22.5252 214.923 18.2779 212.661C13.9235 210.342 9.09778 206.592 5.43533 200.741C1.72602 194.815 0 187.99 0 180.833C0 168.944 3.22692 153.635 6.79303 139.847C10.5118 125.469 15.2143 110.501 19.2445 98.4171C26.4601 76.7826 42.865 56.2834 68.3055 50.1717C76.4609 48.2125 86.2641 46.3887 97.7098 45.1286ZM104.948 32.55C104.948 18.568 116.289 7.23333 130.28 7.23333C144.27 7.23333 155.612 18.568 155.612 32.55V44.4291C147.842 43.7807 139.398 43.4 130.28 43.4C121.162 43.4 112.717 43.7807 104.948 44.4291V32.55ZM97.7098 52.4069V62.451C95.5465 63.7017 94.091 66.0393 94.091 68.7167C94.091 72.7115 97.3314 75.95 101.329 75.95C105.326 75.95 108.566 72.7115 108.566 68.7167C108.566 66.0393 107.111 63.7017 104.948 62.451V51.6883C112.684 51.0255 121.128 50.6333 130.28 50.6333C139.432 50.6333 147.876 51.0255 155.612 51.6883V62.451C153.449 63.7017 151.993 66.0393 151.993 68.7167C151.993 72.7115 155.234 75.95 159.231 75.95C163.228 75.95 166.469 72.7115 166.469 68.7167C166.469 66.0393 165.013 63.7017 162.85 62.451V52.4069C173.647 53.6291 182.886 55.3606 190.562 57.2047C212.899 62.5708 227.775 80.6955 234.449 100.704C238.453 112.71 243.098 127.504 246.759 141.657C250.317 155.413 253.322 169.942 253.322 180.833C253.322 186.817 251.886 192.275 248.989 196.905C246.123 201.483 242.343 204.432 238.878 206.277C235.486 208.084 232.253 208.917 229.979 209.321C228.81 209.528 227.802 209.638 227.026 209.697C226.635 209.727 226.297 209.744 226.017 209.754C225.818 209.761 225.619 209.765 225.42 209.767L225.388 209.767L225.358 209.767C211.141 209.767 198.651 201.223 192.696 188.538L185.188 172.544C179.096 159.567 166.96 151.9 154.238 151.9H106.321C93.5999 151.9 81.4635 159.567 75.3715 172.544L67.8632 188.538C61.9083 201.223 49.4187 209.767 35.2019 209.767L35.1714 209.767L35.1394 209.767L35.0712 209.766L34.9173 209.764C34.8072 209.762 34.6818 209.759 34.5421 209.754C34.263 209.744 33.9242 209.727 33.5337 209.697C32.7576 209.638 31.7493 209.528 30.5803 209.32C28.3065 208.917 25.0739 208.084 21.6816 206.277C18.2169 204.432 14.4368 201.483 11.5714 196.905C8.67388 192.276 7.23777 186.818 7.23777 180.833C7.23777 169.943 10.2426 155.413 13.8005 141.657C17.4611 127.504 22.1068 112.71 26.1109 100.704C32.7843 80.6955 47.6603 62.5708 69.9971 57.2047C77.6737 55.3606 86.9124 53.6291 97.7098 52.4069Z" fill="white"/>
<path d="M83.2343 94.0333L75.9965 101.267L68.7588 94.0333V79.5667H83.2343V94.0333Z" stroke="white" stroke-width="2" mask="url(#path-1-inside-1_6_1364)"/>
<path d="M79.6154 104.883L86.8532 97.65H101.329V112.117H86.8532L79.6154 104.883Z" stroke="white" stroke-width="2" mask="url(#path-1-inside-1_6_1364)"/>
<path d="M83.2343 115.733V130.2H68.7588V115.733L75.9965 108.5L83.2343 115.733Z" stroke="white" stroke-width="2" mask="url(#path-1-inside-1_6_1364)"/>
<path d="M65.1399 112.117H50.6644V97.65H65.1399L72.3777 104.883L65.1399 112.117Z" stroke="white" stroke-width="2" mask="url(#path-1-inside-1_6_1364)"/>
<path d="M175.83 97.9655C178.12 98.6667 179.926 100.472 180.628 102.76C180.833 103.431 180.944 104.144 180.944 104.882C180.944 105.622 180.833 106.336 180.627 107.008C179.924 109.294 178.119 111.097 175.832 111.799C175.16 112.005 174.446 112.116 173.706 112.116C169.709 112.116 166.469 108.877 166.469 104.882C166.469 100.888 169.709 97.6491 173.706 97.6491C174.445 97.6491 175.159 97.7598 175.83 97.9655Z" stroke="white" stroke-width="2" mask="url(#path-1-inside-1_6_1364)"/>
<path d="M181.261 117.225C181.963 114.939 183.768 113.136 186.055 112.435C186.727 112.228 187.441 112.118 188.181 112.118C188.922 112.118 189.637 112.229 190.31 112.436C192.595 113.137 194.398 114.939 195.101 117.223C195.307 117.896 195.419 118.61 195.419 119.351C195.419 123.346 192.178 126.584 188.181 126.584C184.184 126.584 180.943 123.346 180.943 119.351C180.943 118.611 181.054 117.897 181.261 117.225Z" stroke="white" stroke-width="2" mask="url(#path-1-inside-1_6_1364)"/>
<path d="M200.529 111.798C198.244 111.096 196.441 109.294 195.739 107.01C195.532 106.337 195.421 105.623 195.421 104.882C195.421 104.143 195.532 103.43 195.738 102.758C196.44 100.472 198.244 98.6682 200.531 97.9665C201.204 97.7602 201.918 97.6491 202.658 97.6491C206.656 97.6491 209.896 100.888 209.896 104.882C209.896 108.877 206.656 112.116 202.658 112.116C201.917 112.116 201.202 112.004 200.529 111.798Z" stroke="white" stroke-width="2" mask="url(#path-1-inside-1_6_1364)"/>
<path d="M188.181 97.65C188.921 97.65 189.635 97.5389 190.308 97.3326C192.595 96.6309 194.4 94.8271 195.102 92.5411C195.308 91.8693 195.419 91.156 195.419 90.4167C195.419 86.4218 192.178 83.1833 188.181 83.1833C184.184 83.1833 180.943 86.4218 180.943 90.4167C180.943 91.1552 181.054 91.8679 181.26 92.5391C181.962 94.8271 183.768 96.6324 186.057 97.3336C186.729 97.5393 187.442 97.65 188.181 97.65Z" stroke="white" stroke-width="2" mask="url(#path-1-inside-1_6_1364)"/>
<path fill-rule="evenodd" clip-rule="evenodd" d="M97.7098 45.1286V32.55C97.7098 14.5731 112.292 0 130.28 0C148.268 0 162.85 14.5731 162.85 32.55V45.1286C174.295 46.3887 184.099 48.2125 192.254 50.1717C217.695 56.2834 234.099 76.7826 241.315 98.4171C245.345 110.501 250.048 125.469 253.767 139.847C257.333 153.635 260.559 168.943 260.56 180.832C260.56 187.989 258.834 194.814 255.125 200.741C251.462 206.592 246.636 210.342 242.282 212.661C238.034 214.923 234.026 215.949 231.245 216.442C229.806 216.698 228.556 216.835 227.575 216.91C227.081 216.947 226.644 216.97 226.274 216.983C226.004 216.993 225.734 216.998 225.465 217L225.445 217L225.413 217L225.395 217L225.379 217L225.364 217C208.147 217 193.206 206.655 186.144 191.61L178.636 175.616C173.659 165.016 163.977 159.133 154.238 159.133H106.321C96.5823 159.133 86.9004 165.016 81.9239 175.616L74.4157 191.61C67.3531 206.655 52.419 217 35.2019 217L35.1464 217L35.0941 217L34.9776 216.999L34.793 216.996C34.64 216.994 34.4705 216.989 34.2855 216.983C33.9158 216.97 33.4786 216.947 32.9843 216.91C32.0032 216.835 30.753 216.698 29.3145 216.442C26.5335 215.949 22.5252 214.923 18.2779 212.661C13.9235 210.342 9.09778 206.592 5.43533 200.741C1.72602 194.815 0 187.99 0 180.833C0 168.944 3.22692 153.635 6.79303 139.847C10.5118 125.469 15.2143 110.501 19.2445 98.4171C26.4601 76.7826 42.865 56.2834 68.3055 50.1717C76.4609 48.2125 86.2641 46.3887 97.7098 45.1286ZM104.948 32.55C104.948 18.568 116.289 7.23333 130.28 7.23333C144.27 7.23333 155.612 18.568 155.612 32.55V44.4291C147.842 43.7807 139.398 43.4 130.28 43.4C121.162 43.4 112.717 43.7807 104.948 44.4291V32.55ZM97.7098 52.4069V62.451C95.5465 63.7017 94.091 66.0393 94.091 68.7167C94.091 72.7115 97.3314 75.95 101.329 75.95C105.326 75.95 108.566 72.7115 108.566 68.7167C108.566 66.0393 107.111 63.7017 104.948 62.451V51.6883C112.684 51.0255 121.128 50.6333 130.28 50.6333C139.432 50.6333 147.876 51.0255 155.612 51.6883V62.451C153.449 63.7017 151.993 66.0393 151.993 68.7167C151.993 72.7115 155.234 75.95 159.231 75.95C163.228 75.95 166.469 72.7115 166.469 68.7167C166.469 66.0393 165.013 63.7017 162.85 62.451V52.4069C173.647 53.6291 182.886 55.3606 190.562 57.2047C212.899 62.5708 227.775 80.6955 234.449 100.704C238.453 112.71 243.098 127.504 246.759 141.657C250.317 155.413 253.322 169.942 253.322 180.833C253.322 186.817 251.886 192.275 248.989 196.905C246.123 201.483 242.343 204.432 238.878 206.277C235.486 208.084 232.253 208.917 229.979 209.321C228.81 209.528 227.802 209.638 227.026 209.697C226.635 209.727 226.297 209.744 226.017 209.754C225.818 209.761 225.619 209.765 225.42 209.767L225.388 209.767L225.358 209.767C211.141 209.767 198.651 201.223 192.696 188.538L185.188 172.544C179.096 159.567 166.96 151.9 154.238 151.9H106.321C93.5999 151.9 81.4635 159.567 75.3715 172.544L67.8632 188.538C61.9083 201.223 49.4187 209.767 35.2019 209.767L35.1714 209.767L35.1394 209.767L35.0712 209.766L34.9173 209.764C34.8072 209.762 34.6818 209.759 34.5421 209.754C34.263 209.744 33.9242 209.727 33.5337 209.697C32.7576 209.638 31.7493 209.528 30.5803 209.32C28.3065 208.917 25.0739 208.084 21.6816 206.277C18.2169 204.432 14.4368 201.483 11.5714 196.905C8.67388 192.276 7.23777 186.818 7.23777 180.833C7.23777 169.943 10.2426 155.413 13.8005 141.657C17.4611 127.504 22.1068 112.71 26.1109 100.704C32.7843 80.6955 47.6603 62.5708 69.9971 57.2047C77.6737 55.3606 86.9124 53.6291 97.7098 52.4069Z" stroke="white" stroke-width="2" mask="url(#path-1-inside-1_6_1364)"/>
<path d="M948.551 159.134V78.1204H957.884L1028.12 148.833L1027.3 150.917C1026.99 149.142 1026.76 146.75 1026.6 143.741C1026.52 140.655 1026.41 137.337 1026.25 133.788C1026.17 130.239 1026.09 126.728 1026.02 123.256C1026.02 119.784 1025.98 116.698 1025.9 113.998C1025.9 111.22 1025.9 109.175 1025.9 107.864V78.1204H1035V159.134H1025.32L955.784 89.9252L956.018 87.4948C956.095 88.4978 956.173 90.0409 956.251 92.1241C956.407 94.1301 956.562 96.4834 956.718 99.1838C956.873 101.807 957.029 104.546 957.184 107.401C957.34 110.256 957.457 112.995 957.534 115.618C957.612 118.241 957.651 120.479 957.651 122.33V159.134H948.551Z" fill="#DF571D"/>
<path d="M862.165 160.291C854.932 160.291 848.282 159.249 842.215 157.166C836.226 155.005 831.015 152.074 826.582 148.37C822.226 144.589 818.843 140.192 816.432 135.176C814.021 130.084 812.815 124.645 812.815 118.858C812.815 112.994 814.021 107.555 816.432 102.54C818.843 97.5246 822.226 93.1267 826.582 89.3461C831.015 85.4883 836.226 82.5178 842.215 80.4346C848.282 78.3514 854.932 77.3098 862.165 77.3098C869.398 77.3098 876.009 78.3514 881.998 80.4346C887.987 82.5178 893.198 85.4497 897.631 89.2303C902.064 93.011 905.487 97.4474 907.898 102.54C910.387 107.555 911.631 112.994 911.631 118.858C911.631 124.645 910.387 130.084 907.898 135.176C905.487 140.192 902.064 144.589 897.631 148.37C893.198 152.151 887.987 155.083 881.998 157.166C876.009 159.249 869.398 160.291 862.165 160.291ZM862.165 151.379C867.998 151.379 873.365 150.569 878.265 148.949C883.165 147.328 887.403 145.052 890.981 142.12C894.559 139.111 897.32 135.639 899.264 131.704C901.209 127.77 902.181 123.487 902.181 118.858C902.181 114.229 901.209 109.908 899.264 105.896C897.32 101.884 894.559 98.4119 890.981 95.4799C887.403 92.548 883.165 90.2719 878.265 88.6517C873.365 86.9543 867.998 86.1055 862.165 86.1055C856.254 86.1055 850.848 86.9543 845.948 88.6517C841.048 90.2719 836.809 92.548 833.232 95.4799C829.732 98.4119 827.01 101.884 825.065 105.896C823.199 109.908 822.265 114.229 822.265 118.858C822.265 123.487 823.199 127.77 825.065 131.704C827.01 135.639 829.732 139.111 833.232 142.12C836.809 145.052 841.048 147.328 845.948 148.949C850.848 150.569 856.254 151.379 862.165 151.379Z" fill="#DF571D"/>
<path d="M713.625 159.134V78.1204H779.425V86.9161H722.725V150.338H779.191V159.134H713.625ZM718.525 121.868V113.072H772.891V121.868H718.525Z" fill="white"/>
<path d="M577.136 159.134V78.1204H586.119L625.318 127.076H621.819L661.135 78.1204H670.001V159.134H660.901V121.405C660.824 114.769 660.901 108.674 661.135 103.119C661.368 97.4864 661.835 91.8155 662.535 86.106L663.818 89.3465L626.602 135.061H620.302L583.202 89.3465L584.602 86.106C585.302 91.6612 585.769 97.2549 586.002 102.887C586.236 108.442 586.352 114.615 586.352 121.405L586.236 159.134H577.136Z" fill="white"/>
<path d="M453.722 159.134L493.505 78.1204H504.939L544.371 159.134H534.222L505.172 99.6468C504.161 97.3321 503.305 95.4804 502.605 94.0916C501.983 92.7028 501.4 91.5069 500.855 90.5038C500.311 89.5008 499.766 88.3821 499.222 87.1476C498.755 85.9131 498.211 84.3314 497.589 82.4025L500.272 82.2868C499.416 84.5243 498.677 86.3374 498.055 87.7262C497.511 89.0379 496.966 90.2724 496.422 91.4297C495.878 92.5099 495.255 93.7058 494.555 95.0174C493.933 96.3291 493.116 98.0651 492.105 100.225L463.289 159.134H453.722ZM470.172 137.955L473.906 129.159H523.838L525.472 137.955H470.172Z" fill="white"/>
<path d="M382.637 160.291C375.792 160.291 369.376 159.365 363.387 157.513C357.398 155.584 352.109 152.845 347.52 149.296C342.932 145.747 339.354 141.426 336.787 136.334C334.221 131.164 332.937 125.301 332.937 118.742C332.937 112.879 334.221 107.439 336.787 102.424C339.354 97.4088 342.893 93.0495 347.404 89.3461C351.993 85.5654 357.359 82.6721 363.504 80.6661C369.648 78.5829 376.259 77.5413 383.337 77.5413C388.781 77.5413 393.953 78.1585 398.853 79.393C403.753 80.5503 408.148 82.132 412.036 84.1381C415.925 86.067 418.959 88.1887 421.136 90.5034L415.536 97.4474C412.892 95.287 409.82 93.3967 406.32 91.7765C402.898 90.1562 399.203 88.8445 395.237 87.8415C391.348 86.8385 387.42 86.337 383.453 86.337C377.698 86.337 372.331 87.1471 367.354 88.7674C362.454 90.3877 358.137 92.6638 354.404 95.5957C350.67 98.4504 347.793 101.845 345.77 105.78C343.748 109.715 342.737 114.036 342.737 118.742C342.737 123.989 343.787 128.657 345.887 132.746C347.987 136.835 350.904 140.269 354.637 143.046C358.448 145.824 362.804 147.907 367.704 149.296C372.604 150.685 377.853 151.379 383.453 151.379C388.509 151.379 393.292 150.8 397.803 149.643C402.314 148.486 406.281 146.866 409.703 144.782C413.125 142.622 415.77 140.192 417.636 137.491C419.581 134.791 420.475 131.975 420.32 129.043V126.034L422.536 129.158H383.453V120.363H429.77C429.925 121.057 430.003 121.79 430.003 122.562C430.081 123.256 430.12 123.873 430.12 124.413C430.197 124.953 430.236 125.455 430.236 125.918C430.236 131.01 429.031 135.678 426.62 139.922C424.209 144.165 420.864 147.791 416.586 150.8C412.309 153.81 407.292 156.163 401.537 157.86C395.781 159.48 389.481 160.291 382.637 160.291Z" fill="white"/>
</svg>
